<svg width="157" height="30" viewBox="0 0 470 92" fill="none" xmlns="http://www.w3.org/2000/svg">
<path d="M51.2695 37.9429L49.3234 39.1184L43.1856 40L41.8383 38.6776C41.7186 38.56 41.489 38.2367 41.3892 38.0898L40.6407 37.0612L40.1916 36.1796L39.7425 35.0041L38.8443 33.6816V32.3592L38.5449 30.449L38.3952 28.5388L37.6467 27.8041L37.1976 27.0694L36.2994 25.7469L36 24.5714L36.2994 23.5429L36.7485 24.4245L37.6467 25.7469L38.2455 26.3347V26.0408V25.4531V24.8653L38.5449 23.3959V22.6612L38.2455 22.0735L37.497 21.0449L37.1976 20.4571L36.7485 19.5755V17.6653L37.3473 18.4L37.9461 18.9878L38.3952 20.0163L38.994 20.4571L39.4431 19.1347L39.7425 17.9592L40.0419 17.3714L39.4431 16.7837L39.1437 16.1959V15.3143L39.4431 14.5796V14.2857L39.7425 13.9918L40.0419 14.4327L40.1916 15.3143L40.491 14.8735L40.7904 14.2857L41.2395 13.551L41.988 12.9633V12.5224V11.9347L42.1377 11.4939L42.5868 11.2L42.7365 11.9347L43.1856 11.4939L45.8802 8.99592L48.2754 7.37959L51.4192 6.05714L54.4132 4.88163L56.8084 4.29388H59.3533L61 4L60.2515 4.88163L59.3533 5.61633L58.6048 7.37959L58.1557 9.2898L57.5569 11.2V27.6571L56.8084 30.449L55.9102 32.8L55.012 35.0041L53.3653 36.6204L51.2695 37.9429Z" fill="#32B006" stroke="#32B006"/>
<path d="M33.5052 78.3231L32.1598 80.7855L27.3763 86L24.2371 84.9861L20.6495 83.8273L19.0052 82.8134C18.1082 81.9926 16.2546 80.322 16.0155 80.2061C15.7763 80.0903 14.3213 78.6128 13.6237 77.8886L11.0825 74.1226L8.98969 70.9359L7.49485 67.0251L6.44845 64.8524L6 60.507V58.1894L6.44845 55.4373L6.89691 53.5543L8.09278 50.3677C8.74055 49.1123 10.0361 46.5148 10.0361 46.1671C10.0361 45.8195 11.6306 43.9944 12.4278 43.1253L14.5206 41.2423L17.2113 38.6351L19.3041 36.7521L21.0979 34L20.3505 36.7521V39.2145L21.0979 43.1253L21.6959 45.298L23.6392 48.7744L28.4227 55.4373L29.768 57.61L30.8144 59.0585L33.0567 62.9694L34.4021 66.4457L35 68.9081V70.9359V73.5432L34.4021 75.571L33.5052 78.3231Z" fill="#32B006" stroke="#32B006"/>
<path d="M20.3184 32.5684L22.352 32L20.7542 34.4158L20.0279 35.8368L19.0112 37.5421L18.2849 38.1105L16.1061 40.2421L13.4916 42.6579L12.0391 43.9368L9.86034 47.2053L8.40782 49.9053L7.10056 53.4579L6.3743 55.4474L6.22905 57.7211L5.93855 59V61.1316L6.22905 63.1211L6.51955 65.3947C6.6648 65.7263 6.95531 66.4179 6.95531 66.5316C6.95531 66.6453 7.34264 67.4316 7.53631 67.8105L7.82682 68.9474L8.55307 70.3684L9.42458 72.2158L10.8771 74.2053L12.1844 76.7632L13.3464 78.1842L14.6536 79.3211C15.2831 79.9368 16.5419 81.1968 16.5419 81.3105C16.5419 81.4242 17.8976 82.4947 18.5754 83.0158C19.3501 83.3947 20.9285 84.1811 21.0447 84.2947C21.1609 84.4084 22.4488 84.7211 23.0782 84.8632L24.9665 85.5737L27 86H26.5642L24.9665 85.8579L23.0782 85.5737L21.3352 85.0053L19.5922 84.5789L18.4302 84.0105L16.5419 83.0158L14.6536 82.1632L12.6201 80.8842L10.4413 79.3211L8.98883 77.6158L7.53631 76.3368L6.22905 74.6316L5.06704 72.9263L3.90503 70.7947L2.88827 68.6632L2.30726 66.9579L1.43575 64.5421L1.14525 62.2684L1 60.4211V57.1526L1.2905 55.1632L1.72626 53.1737L2.16201 51.1842L2.88827 49.0526L3.75978 46.9211L5.06704 44.6474C5.45438 44.0789 6.22905 42.9137 6.22905 42.8C6.22905 42.6863 7.10056 41.9 7.53631 41.5211C7.92365 41 8.69832 39.9295 8.69832 39.8158C8.69832 39.7021 9.473 39.0105 9.86034 38.6789L11.4581 37.5421C11.9423 37.1632 12.9397 36.3768 13.0559 36.2632C13.1721 36.1495 14.2663 35.5526 14.7989 35.2684L16.6872 34.1316C17.2197 33.8474 18.314 33.2789 18.4302 33.2789C18.5464 33.2789 19.7374 32.8053 20.3184 32.5684Z" fill="#95EF23" stroke="#95EF23"/>
<path d="M10.0737 56.2236V58.2374L10.2187 58.0936L10.6536 57.662C10.7985 57.4702 11.0885 57.0579 11.0885 56.9428C11.0885 56.799 11.3784 56.5113 11.3784 56.3674C11.3784 56.2236 11.6683 55.6482 11.6683 55.5043C11.6683 55.402 11.7447 55.2164 11.7956 55.1091C11.78 55.1107 11.7933 55.0926 11.8133 55.0728C11.8079 55.0834 11.8019 55.0956 11.7956 55.1091C11.8178 55.1067 11.8987 55.0642 12.1032 54.9289C12.4511 54.6988 12.2482 55.2166 12.1032 55.5043C12.0549 55.6961 11.9582 56.1085 11.9582 56.2236C11.9582 56.3386 11.7649 56.8469 11.6683 57.0867L11.0885 58.2374L10.5086 59.2444L10.0737 59.6759L9.92875 60.3951L10.3636 62.1213L10.5086 63.7036C10.6052 64.0872 10.7985 64.912 10.7985 65.1421C10.7985 65.4298 11.2334 66.0052 11.0885 66.5806C10.9725 67.0409 11.2334 67.156 11.3784 67.156C11.475 67.108 11.6973 66.9834 11.8133 66.8683C11.9582 66.7244 11.9582 66.149 12.1032 66.0052C12.2192 65.8901 12.3448 65.5737 12.3931 65.4298C12.683 64.8544 13.2629 63.6749 13.2629 63.5598C13.2629 63.4447 13.4562 62.9365 13.5528 62.6967C13.6011 62.3131 13.6688 61.5172 13.5528 61.4021C13.4369 61.287 13.5045 60.5869 13.5528 60.2513L13.9877 60.539L14.1327 61.4021V62.1213V63.8475L13.8428 64.9983L13.5528 66.4367C13.4562 66.7244 13.2339 67.2998 13.1179 67.2998C13.002 67.2998 12.7797 67.7793 12.683 68.0191C12.5864 68.2109 12.3641 68.6808 12.2482 69.026C12.1032 69.4575 12.3931 69.4575 12.3931 69.6014C12.3931 69.7165 12.8763 70.2247 13.1179 70.4645L13.5528 71.1837C13.6978 71.3755 13.9877 71.7879 13.9877 71.9029C13.9877 72.018 14.4709 72.6222 14.7125 72.9099L15.2924 72.766L15.7273 72.4783V71.4714V71.1837L15.8722 70.6083L16.1622 69.7452C16.2588 69.5534 16.4521 69.1411 16.4521 69.026C16.4521 68.8821 16.5971 68.4506 16.5971 68.3068V67.5875C16.6454 67.3957 16.742 66.9834 16.742 66.8683V66.4367C16.7903 66.2449 16.887 65.8326 16.887 65.7175V65.286C16.9353 64.9983 17.0609 64.3653 17.1769 64.1352C17.2929 63.905 17.3219 64.327 17.3219 64.5667V64.9983C17.4185 65.1421 17.6118 65.4586 17.6118 65.5737C17.6118 65.7175 17.4668 66.149 17.4668 66.2929C17.4668 66.408 17.5635 66.5326 17.6118 66.5806C17.6601 66.8683 17.7568 67.4724 17.7568 67.5875C17.7568 67.7314 17.6118 68.1629 17.6118 68.3068C17.6118 68.4218 17.7084 68.9301 17.7568 69.1698C17.7084 69.6014 17.5828 70.4932 17.4668 70.6083C17.3219 70.7522 17.3219 71.7591 17.3219 72.0468C17.3219 72.2769 17.2252 72.9099 17.1769 73.1976L16.742 74.0607C16.742 74.1566 16.713 74.4922 16.5971 75.0676C16.4811 75.643 19.1581 77.2253 20.5111 77.9445L21.0909 78.2322L21.3808 78.3761C21.4292 78.3761 21.5838 78.4624 21.8157 78.8076C22.1057 79.2392 21.9607 78.5199 21.9607 78.3761C21.9607 78.2322 22.2506 78.0884 22.2506 77.9445C22.2506 77.8295 22.3473 77.4171 22.3956 77.2253V76.2184V74.9237L22.5405 71.6152L22.2506 70.896C22.2023 70.8481 22.1057 70.5508 22.1057 69.7452C22.1057 68.7383 21.9607 69.1698 21.8157 69.026C21.6708 68.8821 21.8157 68.3068 21.8157 68.1629C21.8157 68.0191 21.6708 67.5875 21.6708 67.4437C21.6708 67.3286 21.5741 67.108 21.5258 67.0121L21.3808 66.2929L21.2359 65.5737L21.5258 66.0052L22.1057 66.5806L22.3956 67.156L22.6855 68.0191L22.9754 68.4506L23.2654 69.1698L23.4103 70.1768L23.7002 70.6083V71.3276L23.9902 72.9099L24.2801 73.4853C24.2801 73.725 24.3091 74.2045 24.4251 74.2045C24.541 74.2045 24.4734 75.4512 24.4251 76.0745V79.9584L25.4398 80.3899L26.4545 80.6776L27.4693 80.9653L28.774 81.253H31.8182L31.9631 80.9653L32.398 80.2461L32.8329 79.6707L33.2678 78.9515L33.7027 77.8007L34.2826 76.2184L34.7174 74.9237L35.0074 72.4783L34.8624 71.1837V69.3137L34.4275 67.7314L33.8477 65.5737L32.8329 63.5598L31.8182 61.6898L30.8034 59.5321L29.6437 58.2374L28.484 55.9359L26.7445 53.4905L24.57 50.4697L23.4103 48.5997L21.9607 46.2981L21.0909 43.9965L20.656 41.8388L20.2211 39.3934V37.8111L20.656 36.0849L21.3808 33.7834L22.8305 31.4818L22.3956 32.7764L21.9607 34.5026L21.3808 36.5165V38.6742C21.5258 39.4414 21.8447 41.0908 21.9607 41.5511C22.0767 42.0114 22.9754 43.8527 23.4103 44.7158L25.1499 47.4489L27.4693 50.7574L29.6437 53.6343L31.8182 56.6551L33.8477 59.9636L35.2973 61.4021L36.0221 63.5598L36.602 65.5737L36.7469 66.4367L37.0369 67.2998V68.4506V69.6014V70.7522V72.0468L36.7469 72.9099L36.457 73.9168L36.312 74.9237L35.7322 76.0745L35.2973 77.0815L34.7174 78.2322L34.1376 79.383L33.2678 80.5338L32.9779 81.1092L33.4128 80.9653L34.8624 80.5338L35.8771 80.2461L37.0369 79.9584L38.6315 79.383L39.9361 78.8076L41.2408 78.0884L42.6904 77.0815L43.8501 76.3622L45.2998 75.2114L46.7494 73.6291L47.7641 72.4783L48.4889 71.1837L49.5037 69.6014L50.0835 68.4506L50.8084 67.0121L51.2432 66.149L51.5332 65.1421L51.8231 64.4229L51.9681 63.5598L52.258 62.409V61.6898L52.403 60.8267V59.9636V58.0936V56.3674L52.258 55.2166L51.9681 53.6343L51.5332 52.052L51.2432 50.7574L50.8084 49.7504L50.3735 49.0312L49.7936 48.0243L49.3587 46.8735L48.6339 45.8666L48.0541 45.0035L47.4742 43.9965L46.7494 43.2773L46.1695 42.7019L45.2998 41.8388L44.5749 40.9757L43.8501 40.688L43.5602 40.2565L42.5455 38.3865L41.9656 37.6672L41.5307 36.948L41.2408 36.0849L40.226 34.3588L39.9361 33.3518L39.6462 32.7764V31.9133L39.2113 30.4749V29.8995L39.0663 29.0364L38.6315 28.6049L38.0516 27.8856L37.4717 26.8787L36.8919 25.7279L36.7469 25.2964V24.8648L36.8919 24.2894L37.1818 24.8648L37.6167 25.4402L37.9066 25.8717C38.0516 26.0635 38.3415 26.4759 38.3415 26.591C38.3415 26.7061 38.7281 26.8307 38.9214 26.8787L39.0663 26.4471V25.8717L38.9214 25.5841L39.0663 24.8648L39.2113 24.1456V23.1386L38.9214 22.4194L38.4865 21.844L38.0516 21.2686L37.9066 20.8371C37.7617 20.6453 37.4717 20.2329 37.4717 20.1178V19.6863V18.6794L37.9066 19.1109L38.3415 19.6863L38.6315 20.1178L38.7764 20.5494L39.2113 20.9809L39.5012 21.1248L39.7912 20.8371L39.9361 20.2617L40.0811 19.8302C40.1294 19.7343 40.226 19.5137 40.226 19.3986C40.226 19.2835 40.3227 18.9671 40.371 18.8232L40.516 18.6794V18.104C40.4677 18.0081 40.371 17.7875 40.371 17.6724C40.371 17.5574 40.2744 17.4327 40.226 17.3847L39.9361 16.9532L39.7912 16.5217V15.9463C39.7912 15.8024 39.9361 15.6586 39.9361 15.5147V15.0832L40.0811 14.7955L40.371 15.0832V15.5147C40.4193 15.6586 40.516 15.975 40.516 16.0901C40.516 16.2052 40.6126 16.4258 40.6609 16.5217L41.0958 16.8094V17.3847L41.3857 16.9532L41.6757 16.3778L42.2555 15.6586L42.5455 15.0832C42.5938 14.9873 42.7194 14.7667 42.8354 14.6516C42.9514 14.5366 42.6904 14.4119 42.5455 14.364V13.9324V12.3501C42.5455 12.235 42.7387 12.1103 42.8354 12.0624V12.4939C42.8354 12.609 43.0287 13.0214 43.1253 13.2132C43.1736 13.357 43.2993 13.6735 43.4152 13.7886C43.5602 13.9324 43.5602 13.9324 43.5602 14.0763C43.5602 14.1913 43.7535 14.1242 43.8501 14.0763L44.43 13.5009L44.7199 12.7816L45.2998 12.3501L46.1695 11.7747L47.0393 11.0555L47.3292 10.6239L47.6192 10.4801L48.344 10.3362L47.9091 10.6239L47.6192 11.0555L46.7494 12.0624L46.1695 12.7816L45.7346 13.2132L45.4447 13.5009L45.2998 13.7886L44.8649 14.2201L44.5749 14.5078L44.285 14.9393L44.5749 15.227L45.2998 14.7955L45.8796 14.5078L46.1695 14.2201L46.6044 13.9324H47.0393L46.7494 14.364L46.4595 14.7955L45.7346 15.3709L44.7199 15.9463L44.14 16.0901L43.5602 16.9532L43.1253 17.3847V17.9601L42.5455 18.8232L42.2555 19.6863L41.9656 20.5494L41.6757 21.5563L43.1253 20.5494L44.14 19.8302L44.8649 19.2548L46.0246 18.104L45.7346 19.3986L44.7199 20.5494L43.7052 21.7002L42.8354 22.4194L41.3857 23.4263V25.5841V27.3102L42.6904 26.591L43.7052 25.5841L44.7199 24.2894L45.7346 23.2825L46.4595 21.7002V22.4194L46.0246 23.714L45.7346 24.5771L44.7199 25.7279L43.7052 26.8787L42.6904 28.0295L41.6757 29.0364L42.1106 30.4749L42.8354 32.4887L43.7052 33.7834L44.7199 32.4887L45.4447 31.4818L46.4595 30.331L47.1843 29.0364L47.6192 27.8856L48.199 26.591L48.6339 25.2964V24.5771L49.0688 24.8648V26.3033L48.6339 27.8856L48.199 29.8995L47.1843 32.201L46.0246 33.7834L44.7199 35.7972C45.8313 36.8521 48.083 38.9906 48.199 39.1057C48.315 39.2208 49.0205 39.3455 49.3587 39.3934L50.8084 38.6742L52.258 37.8111L53.4177 36.948L54.4324 35.7972L55.3022 34.5026L55.8821 33.3518L56.4619 32.201L56.8968 31.0503L57.1867 29.8995L57.6216 27.8856V11.7747L58.0565 10.3362L58.6364 8.61005L59.0713 7.17158L60.231 5.7331L61.1007 4.72617L62.1155 3.86308L64 3L63.7101 3.28769L62.4054 4.15078L61.5356 5.01386L60.5209 6.45234L59.941 7.45927L59.5061 8.89775C59.3612 9.42519 59.0713 10.5376 59.0713 10.7678V12.9255V14.9393C58.9746 15.4188 58.8393 16.5217 59.0713 17.0971C59.3032 17.6724 59.4578 18.5835 59.5061 18.9671V21.1248V22.7071V24.5771V26.3033V27.8856L59.0713 29.6118L58.7813 31.4818L57.7666 33.7834L56.6069 35.7972L55.1572 37.0919L53.2727 38.6742L50.2285 39.9688L51.6781 41.5511L52.8378 43.2773L53.9975 45.435L55.3022 48.312L56.4619 51.1889L57.0418 55.3605V58.5251V62.6967L55.8821 66.8683L54.4324 70.6083L52.113 74.3484L49.7936 77.3691L47.0393 79.9584L43.2703 82.6915L39.9361 84.2738L36.457 85.4246L32.398 86H30.3686H28.3391L26.4545 85.7123L24.57 84.8492L21.2359 83.2669L17.6118 80.8215L15.7273 79.0953L13.5528 76.6499L11.0885 75.643L9.34889 74.636L7.7543 73.1976H8.33415L9.34889 73.773L10.7985 74.636H12.2482C11.5233 73.2935 10.0737 70.4932 10.0737 70.0329C10.0737 69.5726 8.52744 69.1698 7.7543 69.026L6.30467 68.3068L5 66.4367L6.01474 67.0121L6.88452 67.8752L8.33415 68.3068H9.34889L8.33415 64.279L6.59459 62.8406L5.72482 62.2652L5 60.9705L5.72482 61.5459L6.88452 62.2652L8.33415 62.8406V59.1005L7.31941 58.2374L6.30467 57.0867L6.01474 56.2236L6.59459 56.6551L7.31941 57.0867L7.7543 57.5182L8.33415 57.9497L8.62408 57.5182L8.914 55.6482L9.34889 53.4905L10.0737 52.052L10.7985 50.4697V52.052L10.0737 54.2097V56.2236Z" fill="#0B5720"/>
<path d="M10.0737 58.2374V56.2236V54.2097L10.7985 52.052V50.4697L10.0737 52.052L9.34889 53.4905L8.914 55.6482L8.62408 57.5182L8.33415 57.9497L7.7543 57.5182L7.31941 57.0867L6.59459 56.6551L6.01474 56.2236L6.30467 57.0867L7.31941 58.2374L8.33415 59.1005V62.8406L6.88452 62.2652L5.72482 61.5459L5 60.9705L5.72482 62.2652L6.59459 62.8406L8.33415 64.279L9.34889 68.3068H8.33415L6.88452 67.8752L6.01474 67.0121L5 66.4367L6.30467 68.3068L7.7543 69.026C8.52744 69.1698 10.0737 69.5726 10.0737 70.0329C10.0737 70.4932 11.5233 73.2935 12.2482 74.636H10.7985L9.34889 73.773L8.33415 73.1976H7.7543L9.34889 74.636L11.0885 75.643L13.5528 76.6499L15.7273 79.0953L17.6118 80.8215L21.2359 83.2669L24.57 84.8492L26.4545 85.7123L28.3391 86H30.3686H32.398L36.457 85.4246L39.9361 84.2738L43.2703 82.6915L47.0393 79.9584L49.7936 77.3691L52.113 74.3484L54.4324 70.6083L55.8821 66.8683L57.0418 62.6967V58.5251V55.3605L56.4619 51.1889L55.3022 48.312L53.9975 45.435L52.8378 43.2773L51.6781 41.5511L50.2285 39.9688L53.2727 38.6742L55.1572 37.0919L56.6069 35.7972L57.7666 33.7834L58.7813 31.4818L59.0713 29.6118L59.5061 27.8856V26.3033V24.5771V22.7071V21.1248V18.9671C59.4578 18.5835 59.3032 17.6724 59.0713 17.0971C58.8393 16.5217 58.9746 15.4188 59.0713 14.9393V12.9255C59.0713 12.3021 59.0713 10.9979 59.0713 10.7678C59.0713 10.5376 59.3612 9.42519 59.5061 8.89775L59.941 7.45927L60.5209 6.45234L61.5356 5.01386L62.4054 4.15078L63.7101 3.28769L64 3L62.1155 3.86308L61.1007 4.72617L60.231 5.7331L59.0713 7.17158L58.6364 8.61005L58.0565 10.3362L57.6216 11.7747V27.8856L57.1867 29.8995L56.8968 31.0503L56.4619 32.201L55.8821 33.3518L55.3022 34.5026L54.4324 35.7972L53.4177 36.948L52.258 37.8111L50.8084 38.6742L49.3587 39.3934C49.0205 39.3455 48.315 39.2208 48.199 39.1057C48.083 38.9906 45.8313 36.8521 44.7199 35.7972L46.0246 33.7834L47.1843 32.201L48.199 29.8995L48.6339 27.8856L49.0688 26.3033V24.8648L48.6339 24.5771V25.2964L48.199 26.591L47.6192 27.8856L47.1843 29.0364L46.4595 30.331L45.4447 31.4818L44.7199 32.4887L43.7052 33.7834L42.8354 32.4887L42.1106 30.4749L41.6757 29.0364L42.6904 28.0295L43.7052 26.8787L44.7199 25.7279L45.7346 24.5771L46.0246 23.714L46.4595 22.4194V21.7002L45.7346 23.2825L44.7199 24.2894L43.7052 25.5841L42.6904 26.591L41.3857 27.3102V25.5841V23.4263L42.8354 22.4194L43.7052 21.7002L44.7199 20.5494L45.7346 19.3986L46.0246 18.104L44.8649 19.2548L44.14 19.8302L43.1253 20.5494L41.6757 21.5563L41.9656 20.5494L42.2555 19.6863L42.5455 18.8232L43.1253 17.9601V17.3847L43.5602 16.9532L44.14 16.0901L44.7199 15.9463L45.7346 15.3709L46.4595 14.7955L46.7494 14.364L47.0393 13.9324H46.6044L46.1695 14.2201L45.8796 14.5078L45.2998 14.7955L44.5749 15.227L44.285 14.9393L44.5749 14.5078L44.8649 14.2201L45.2998 13.7886L45.4447 13.5009L45.7346 13.2132L46.1695 12.7816L46.7494 12.0624L47.6192 11.0555L47.9091 10.6239L48.344 10.3362L47.6192 10.4801L47.3292 10.6239L47.0393 11.0555L46.1695 11.7747L45.2998 12.3501L44.7199 12.7816L44.43 13.5009L43.8501 14.0763C43.7535 14.1242 43.5602 14.1913 43.5602 14.0763C43.5602 13.9324 43.5602 13.9324 43.4152 13.7886C43.2993 13.6735 43.1736 13.357 43.1253 13.2132C43.0287 13.0214 42.8354 12.609 42.8354 12.4939C42.8354 12.3789 42.8354 12.1583 42.8354 12.0624C42.7387 12.1103 42.5455 12.235 42.5455 12.3501C42.5455 12.4652 42.5455 13.4529 42.5455 13.9324V14.364C42.6904 14.4119 42.9514 14.5366 42.8354 14.6516C42.7194 14.7667 42.5938 14.9873 42.5455 15.0832L42.2555 15.6586L41.6757 16.3778L41.3857 16.9532L41.0958 17.3847V16.8094L40.6609 16.5217C40.6126 16.4258 40.516 16.2052 40.516 16.0901C40.516 15.975 40.4193 15.6586 40.371 15.5147V15.0832L40.0811 14.7955L39.9361 15.0832C39.9361 15.1791 39.9361 15.3997 39.9361 15.5147C39.9361 15.6586 39.7912 15.8024 39.7912 15.9463C39.7912 16.0614 39.7912 16.3778 39.7912 16.5217L39.9361 16.9532L40.226 17.3847C40.2744 17.4327 40.371 17.5574 40.371 17.6724C40.371 17.7875 40.4676 18.0081 40.516 18.104V18.6794L40.371 18.8232C40.3227 18.9671 40.226 19.2835 40.226 19.3986C40.226 19.5137 40.1294 19.7343 40.0811 19.8302L39.9361 20.2617L39.7912 20.8371L39.5012 21.1248L39.2113 20.9809L38.7764 20.5494L38.6314 20.1179L38.3415 19.6863L37.9066 19.1109L37.4717 18.6794V19.6863C37.4717 19.7822 37.4717 20.0028 37.4717 20.1179C37.4717 20.2329 37.7617 20.6453 37.9066 20.8371L38.0516 21.2686L38.4865 21.844L38.9214 22.4194L39.2113 23.1386V24.1456L39.0663 24.8648L38.9214 25.5841L39.0663 25.8717V26.4471L38.9214 26.8787C38.7281 26.8307 38.3415 26.7061 38.3415 26.591C38.3415 26.4759 38.0516 26.0635 37.9066 25.8717L37.6167 25.4402L37.1818 24.8648L36.8919 24.2894L36.7469 24.8648V25.2964L36.8919 25.7279L37.4717 26.8787L38.0516 27.8856L38.6314 28.6049L39.0663 29.0364L39.2113 29.8995V30.4749L39.6462 31.9133V32.7764L39.9361 33.3518L40.226 34.3588L41.2408 36.0849L41.5307 36.948L41.9656 37.6672L42.5455 38.3865L43.5602 40.2565L43.8501 40.688L44.5749 40.9757L45.2998 41.8388L46.1695 42.7019L46.7494 43.2773L47.4742 43.9965L48.0541 45.0035L48.6339 45.8665L49.3587 46.8735L49.7936 48.0243L50.3735 49.0312L50.8084 49.7504L51.2432 50.7574L51.5332 52.052L51.9681 53.6343L52.258 55.2166L52.4029 56.3674V58.0936V59.9636V60.8267L52.258 61.6898V62.409L51.9681 63.5598L51.8231 64.4229L51.5332 65.1421L51.2432 66.149L50.8084 67.0121L50.0835 68.4506L49.5037 69.6014L48.4889 71.1837L47.7641 72.4783L46.7494 73.6291L45.2998 75.2114L43.8501 76.3622L42.6904 77.0815L41.2408 78.0884L39.9361 78.8076L38.6314 79.383L37.0369 79.9584L35.8771 80.2461L34.8624 80.5338L33.4128 80.9653L32.9779 81.1092L33.2678 80.5338L34.1376 79.383L34.7174 78.2322L35.2973 77.0815L35.7322 76.0745L36.312 74.9237L36.457 73.9168L36.7469 72.9099L37.0369 72.0468V70.7522V69.6014V68.4506V67.2998L36.7469 66.4367L36.602 65.5737L36.0221 63.5598L35.2973 61.4021L33.8477 59.9636L31.8182 56.6551L29.6437 53.6343L27.4693 50.7574L25.1499 47.4489L23.4103 44.7158C22.9754 43.8527 22.0767 42.0114 21.9607 41.5511C21.8447 41.0908 21.5258 39.4414 21.3808 38.6742V36.5165L21.9607 34.5026L22.3956 32.7764L22.8305 31.4818L21.3808 33.7834L20.656 36.0849L20.2211 37.8111V39.3934L20.656 41.8388L21.0909 43.9965L21.9607 46.2981L23.4103 48.5997L24.57 50.4697L26.7445 53.4905L28.484 55.9359L29.6437 58.2374L30.8034 59.5321L31.8182 61.6898L32.8329 63.5598L33.8477 65.5737L34.4275 67.7314L34.8624 69.3137V71.1837L35.0074 72.4783L34.7174 74.9237L34.2826 76.2184L33.7027 77.8007L33.2678 78.9515L32.8329 79.6707L32.398 80.2461L31.9631 80.9653L31.8182 81.253H28.774L27.4693 80.9653L26.4545 80.6776L25.4398 80.3899L24.4251 79.9584V76.0745C24.4734 75.4512 24.541 74.2045 24.4251 74.2045C24.3091 74.2045 24.2801 73.725 24.2801 73.4853L23.9902 72.9099L23.7002 71.3276V70.6083L23.4103 70.1768L23.2654 69.1698L22.9754 68.4506L22.6855 68.0191L22.3956 67.156L22.1057 66.5806L21.5258 66.0052L21.2359 65.5737L21.3808 66.2929L21.5258 67.0121C21.5741 67.108 21.6708 67.3286 21.6708 67.4437C21.6708 67.5875 21.8157 68.0191 21.8157 68.1629C21.8157 68.3068 21.6708 68.8821 21.8157 69.026C21.9607 69.1698 22.1057 68.7383 22.1057 69.7452C22.1057 70.5508 22.2023 70.8481 22.2506 70.896L22.5405 71.6152L22.3956 74.9237C22.3956 75.3073 22.3956 76.1033 22.3956 76.2184C22.3956 76.3334 22.3956 76.9376 22.3956 77.2253C22.3473 77.4171 22.2506 77.8295 22.2506 77.9445C22.2506 78.0884 21.9607 78.2322 21.9607 78.3761C21.9607 78.5199 22.1057 79.2392 21.8157 78.8076C21.5838 78.4624 21.4292 78.3761 21.3808 78.3761L21.0909 78.2322L20.5111 77.9445C19.1581 77.2253 16.4811 75.643 16.5971 75.0676C16.713 74.4922 16.742 74.1566 16.742 74.0607L17.1769 73.1976C17.2252 72.9099 17.3219 72.2769 17.3219 72.0468C17.3219 71.7591 17.3219 70.7522 17.4668 70.6083C17.5828 70.4932 17.7084 69.6014 17.7568 69.1698C17.7084 68.9301 17.6118 68.4218 17.6118 68.3068C17.6118 68.1629 17.7568 67.7314 17.7568 67.5875C17.7568 67.4724 17.6601 66.8683 17.6118 66.5806C17.5635 66.5326 17.4668 66.408 17.4668 66.2929C17.4668 66.149 17.6118 65.7175 17.6118 65.5737C17.6118 65.4586 17.4185 65.1421 17.3219 64.9983V64.5667C17.3219 64.327 17.2929 63.905 17.1769 64.1352C17.0609 64.3653 16.9353 64.9983 16.887 65.286C16.887 65.3819 16.887 65.6024 16.887 65.7175C16.887 65.8326 16.7903 66.2449 16.742 66.4367C16.742 66.5326 16.742 66.7532 16.742 66.8683C16.742 66.9834 16.6454 67.3957 16.5971 67.5875C16.5971 67.7793 16.5971 68.1917 16.5971 68.3068C16.5971 68.4506 16.4521 68.8821 16.4521 69.026C16.4521 69.1411 16.2588 69.5534 16.1622 69.7452L15.8722 70.6083L15.7273 71.1837V71.4714V72.4783L15.2924 72.766L14.7125 72.9099C14.4709 72.6222 13.9877 72.018 13.9877 71.9029C13.9877 71.7879 13.6978 71.3755 13.5528 71.1837L13.1179 70.4645C12.8763 70.2247 12.3931 69.7165 12.3931 69.6014C12.3931 69.4575 12.1032 69.4575 12.2482 69.026C12.3641 68.6808 12.5864 68.2109 12.683 68.0191C12.7797 67.7793 13.002 67.2998 13.1179 67.2998C13.2339 67.2998 13.4562 66.7244 13.5528 66.4367L13.8428 64.9983L14.1327 63.8475V62.1213V61.4021L13.9877 60.539L13.5528 60.2513C13.5045 60.5869 13.4369 61.287 13.5528 61.4021C13.6688 61.5172 13.6011 62.3131 13.5528 62.6967C13.4562 62.9365 13.2629 63.4447 13.2629 63.5598C13.2629 63.6749 12.683 64.8544 12.3931 65.4298C12.3448 65.5737 12.2192 65.8901 12.1032 66.0052C11.9582 66.149 11.9582 66.7244 11.8133 66.8683C11.6973 66.9834 11.475 67.108 11.3784 67.156C11.2334 67.156 10.9725 67.0409 11.0885 66.5806C11.2334 66.0052 10.7985 65.4298 10.7985 65.1421C10.7985 64.912 10.6052 64.0872 10.5086 63.7036L10.3636 62.1213L9.92875 60.3951L10.0737 59.6759L10.5086 59.2444L11.0885 58.2374L11.6683 57.0867C11.7649 56.8469 11.9582 56.3386 11.9582 56.2236C11.9582 56.1085 12.0549 55.6961 12.1032 55.5043C12.2482 55.2166 12.4511 54.6988 12.1032 54.9289C11.7553 55.1591 11.7649 55.1207 11.8133 55.0728C11.7649 55.1687 11.6683 55.3893 11.6683 55.5043C11.6683 55.6482 11.3784 56.2236 11.3784 56.3674C11.3784 56.5113 11.0885 56.799 11.0885 56.9428C11.0885 57.0579 10.7985 57.4702 10.6536 57.662L10.2187 58.0936L10.0737 58.2374Z" stroke="#0B5720"/>
<path d="M23.8281 39.9925L22 40.5597H23.2656L25.0938 43.2537L27.0625 46.6567L29.5938 49.7761L31.9844 53.4627L34.375 56.5821L36.2031 59.4179L37.75 62.1119L39.4375 66.6493L40 70.6194L39.4375 74.0224L38.0312 77L39.4375 76.1493L41.9688 74.4478L42.9531 73.4552L44.0781 72.3209L45.0625 71.3284L46.1875 69.7687L47.1719 68.0672L47.875 66.3657L48.4375 64.5224L49 62.1119V60.5522V58.1418L48.8594 55.5896L48.4375 53.4627L47.875 51.6194L47.0312 49.7761L45.625 47.6493L44.2188 45.6642L42.5312 43.8209L40.2812 42.2612L38.3125 40.9851L36.4844 39.9925L33.5312 39.2836L31.4219 39H29.5938L27.0625 39.1418L25.6562 39.2836L23.8281 39.9925Z" fill="#FFA903" stroke="#FFA903"/>
<path d="M47.9679 65.0842L47.0833 67L46.3462 64.3474L45.4615 61.4L44.4295 58.7474L43.25 56.3895L41.9231 54.3263L40.3013 51.9684L38.5321 49.4632L37.2051 47.8421L35.8782 46.3684L33.8141 44.8947L31.8974 43.1263L29.6859 41.6526L28.5064 40.6211L26.7372 39.5895L26 39.1474L26.8846 39H29.9808H32.3397L34.2564 39.4421L36.4679 40.0316L38.0897 40.7684L39.7115 41.6526L41.3333 42.8316L43.5449 44.8947L45.0192 46.3684L46.3462 47.8421L47.0833 49.3158L47.9679 51.5263L48.5577 53.2947L49 54.6211V57.2737V60.2211L48.5577 63.0211L47.9679 65.0842Z" fill="#D7DB07" stroke="#D7DB07"/>
<path d="M36.8819 78.2642L34.8976 79L36.0315 76.4981L36.315 75.7623L36.5984 74.2906L36.8819 73.5547L37.0236 72.6717V69.434V67.9623L35.3228 61.7811L35.0394 61.4868L34.4724 61.0453L33.4803 59.5736L31.9213 56.9245L30.3622 54.717L27.9528 51.3321L26.6772 49.2717L25.1181 47.0642L23.5591 44.5623L22.9921 43.0906L22.2835 41.766L22 40H23.2756L24.126 41.1774L25.1181 42.9434L25.9685 44.7094L30.0787 50.4491L31.6378 52.9509L32.9134 54.717C33.5276 55.5019 34.7559 57.1011 34.7559 57.2189C34.7559 57.3366 35.6063 58.7396 36.0315 59.4264L37.7323 62.3698L39.2913 66.9321L40 71.0528L39.7165 73.2604L39.1496 75.3208L37.874 77.6755L36.8819 78.2642Z" fill="#B92323" stroke="#B92323"/>
<path d="M62.2335 2.90734L60.7614 3.93436L59.5838 4.08108C59.2893 4.12999 58.6711 4.2278 58.5533 4.2278H57.5228H56.7868L53.2538 5.10811L51.0457 6.13514L47.9543 7.60232L46.1878 8.62934L45.1574 9.80309L43.8325 10.6834L43.2437 11.7104L43.0964 11.417L42.802 10.9768L42.3604 11.417L42.066 12.0039V12.8842C42.066 13.0015 41.5753 13.2265 41.3299 13.3243C41.2318 13.471 41.0061 13.7938 40.8883 13.9112C40.7706 14.0286 40.643 14.4492 40.5939 14.6448V15.2317C40.5939 15.0849 40.4467 14.7915 40.2995 14.6448C40.1817 14.5274 40.0541 14.2046 40.0051 14.0579L39.8579 13.7645L39.5635 14.4981L39.269 15.2317V16.2587C39.3672 16.4543 39.5929 16.8749 39.7107 16.9923C39.8284 17.1097 39.956 17.3346 40.0051 17.4324V18.0193C39.8579 18.2638 39.5635 18.7822 39.5635 18.8996V20.0734L38.6802 19.9266L38.3858 19.4865L37.9442 18.7529L37.5025 18.0193L37.0609 17.5792V18.3127C36.9628 18.6062 36.7665 19.2224 36.7665 19.3398C36.7665 19.4865 37.0609 20.0734 37.0609 20.2201C37.0609 20.3375 37.9442 21.5405 38.3858 22.1274C38.4349 22.4208 38.533 23.0371 38.533 23.1544C38.533 23.2718 38.4349 24.0837 38.3858 24.4749L38.2386 25.7954L37.6497 25.0618L37.0609 24.0347L36.6193 23.3012L36.3249 23.5946L36.1777 24.7683C36.2758 25.1596 36.5015 25.9714 36.6193 26.0888C36.7371 26.2062 37.0609 26.7246 37.2081 26.9691L38.3858 28.4363L38.533 29.0232C38.6311 29.7568 38.8274 31.2826 38.8274 31.5174C38.8274 31.7521 39.0237 32.8867 39.1218 33.4247C39.269 33.7671 39.5929 34.4811 39.7107 34.5985C39.8284 34.7158 41.6244 37.5817 42.5076 39L41.3299 37.973L40.1523 36.7992L39.1218 35.332L38.0914 34.0116L37.2081 32.6911L36.7665 30.9305L35.4416 27.4093L35.1472 25.5019V23.4479C35.1472 23.2131 35.0491 22.1763 35 21.6873C35.1963 20.9048 35.5888 19.3104 35.5888 19.1931C35.5888 19.0757 35.9814 17.0901 36.1777 16.112L37.3553 13.7645L38.3858 11.7104C38.7783 11.1725 39.5635 10.0672 39.5635 9.94981C39.5635 9.83243 40.7411 8.62934 41.3299 8.04247L42.5076 6.72201C43.1455 6.18404 44.4508 5.07876 44.5685 4.96139C44.6863 4.84402 45.4027 4.32561 45.7462 4.08108L49.7208 2.17375L51.6345 1.44015L54.4315 1.14672L56.198 1H58.8477L61.203 1.44015L62.6751 1.58687L64 2.02703L62.2335 2.90734Z" fill="#95EF23" stroke="#95EF23"/>
<g filter="url(#filter0_d)">
<path d="M18.9054 49.3511H19.9284L21.3897 49.9313L21.5358 51.3817V52.8321V54.1374C21.5358 54.3695 21.2436 54.9109 21.0974 55.1527L20.0745 55.7328H18.9054L18.1748 55.1527L17.7364 54.1374L17.4441 53.1221L17.7364 51.8168L18.1748 50.0763L18.9054 49.3511Z" fill="#16D2C7" fill-opacity="0.56"/>
<path d="M16.5673 57.0382H17.0057H17.7364L18.3209 57.4733L18.467 58.4886L18.1748 59.7939V60.6641L17.7364 61.0992H16.7135L15.9828 60.9542L15.6905 60.374V59.3588V58.4886L15.9828 57.6183L16.5673 57.0382Z" fill="#16D2C7" fill-opacity="0.56"/>
<path d="M21.3897 60.6641H21.8281H22.1203H22.7049L22.9971 61.3893L23.1433 62.4046L22.9971 63.2748L22.1203 64H21.5358L21.0974 63.2748L20.8052 62.6947V61.9695L21.0974 61.0992L21.3897 60.6641Z" fill="#16D2C7" fill-opacity="0.56"/>
<path d="M4.4384 49.6412H5.02292L5.46132 49.7863L5.89971 50.8015L5.60745 51.8168L5.02292 52.1069H4.58453L4.29226 51.9618L4 51.3817V50.8015V50.0763L4.4384 49.6412Z" fill="#16D2C7" fill-opacity="0.56"/>
<path d="M7.2149 43.5496L7.6533 43.1145H8.53009L8.96848 44.2748V45.145L8.53009 45.5802H8.09169H7.6533L7.2149 45.145V44.2748V43.5496Z" fill="#16D2C7" fill-opacity="0.56"/>
<path d="M50.0315 13.3817L50.7622 12.9466H51.9312L52.9542 13.9618V15.7023V16.7176L51.9312 17.8779L50.7622 17.4427L50.0315 16.7176L49.7393 15.7023V14.3969L50.0315 13.3817Z" fill="#16D2C7" fill-opacity="0.56"/>
<path d="M48.8625 20.0534L49.7393 19.3282H50.7622L51.3467 20.7786L51.0544 22.374L50.0315 23.0992L49.1547 22.374L48.8625 20.9237V20.0534Z" fill="#16D2C7" fill-opacity="0.56"/>
<path d="M53.5387 21.5038H54.4155L55 22.374V23.3893L54.4155 24.1145L53.6848 23.3893L53.5387 22.374V21.5038Z" fill="#16D2C7" fill-opacity="0.56"/>
<path d="M45.6476 8.01527L45.2092 7.14504L44.4785 7L44.0401 7.29008L43.7478 7.72519V8.30534V8.8855L44.0401 9.32061H44.4785L44.9169 8.8855L45.3553 8.30534L45.6476 8.01527Z" fill="#16D2C7" fill-opacity="0.56"/>
<path d="M17.6869 59.6847L17.6748 59.7386V59.7939V60.4559L17.5304 60.5992H16.7626L16.3195 60.5113L16.1905 60.2552V59.3588V58.5703L16.4191 57.8898L16.7733 57.5382H17.0057H17.5707L17.8556 57.7503L17.9591 58.4689L17.6869 59.6847ZM45.0031 7.95046L44.9778 7.97552L44.9564 8.0039L44.5394 8.55568L44.293 8.80031L44.2478 8.73316V8.30534V7.87752L44.3994 7.65188L44.5829 7.53048L44.8724 7.58795L45.0377 7.91607L45.0031 7.95046ZM18.6257 50.3333L19.1114 49.8511H19.8327L20.9227 50.2839L21.0358 51.4068V52.8321V54.1252C21.0348 54.129 21.0305 54.1518 21.0146 54.1988C20.9929 54.2623 20.96 54.3411 20.9188 54.429C20.8601 54.5541 20.792 54.6816 20.7338 54.7841L19.9426 55.2328H19.0798L18.584 54.8392L18.2081 53.9685L17.96 53.1067L18.2229 51.9325L18.6257 50.3333ZM21.55 61.3222L21.6562 61.1641H21.8281H22.1203H22.3673L22.5108 61.5203L22.6373 62.3987L22.5349 63.0083L21.9404 63.5H21.8178L21.5353 63.0327L21.3052 62.5758V62.0512L21.55 61.3222ZM4.5 50.2845L4.6444 50.1412H4.94236L5.09124 50.1905L5.36968 50.8353L5.18789 51.4668L4.90568 51.6069H4.70177L4.66382 51.588L4.5 51.2629V50.8015V50.2845ZM7.7149 44.2748V43.7578L7.8593 43.6145H8.1845L8.46848 44.3661V44.9368L8.32408 45.0802H8.09169H7.8593L7.7149 44.9368V44.2748ZM50.2393 14.4675L50.4573 13.7101L50.8998 13.4466H51.7252L52.4542 14.17V15.7023V16.5286L51.7835 17.2894L51.0378 17.0118L50.476 16.4543L50.2393 15.6318V14.4675ZM49.3625 20.8738V20.2887L49.9192 19.8282H50.4246L50.8288 20.8311L50.5993 22.0838L50.0549 22.4697L49.6099 22.1016L49.3625 20.8738ZM54.0387 22.3382V22.0038H54.149L54.5 22.5264V23.2129L54.3741 23.369L54.1559 23.1524L54.0387 22.3382Z" stroke="#FEFAFA" stroke-opacity="0.39"/>
</g>
<ellipse cx="28" cy="91" rx="22" ry="1" fill="#C4C4C4"/>
<path d="M105.898 55.5703V48.8438C105.898 47.9219 105.719 47.0547 105.359 46.2422C105.016 45.4141 104.539 44.6953 103.93 44.0859C103.32 43.4766 102.602 43 101.773 42.6562C100.961 42.2969 100.094 42.1172 99.1719 42.1172C98.25 42.1172 97.375 42.2969 96.5469 42.6562C95.7344 43 95.0234 43.4766 94.4141 44.0859C93.8047 44.6953 93.3203 45.4141 92.9609 46.2422C92.6172 47.0547 92.4453 47.9219 92.4453 48.8438V55.5703H105.898ZM112.625 69H105.898V62.2734H92.4453V69H85.7422V48.8438C85.7422 46.9844 86.0938 45.2422 86.7969 43.6172C87.5 41.9766 88.4531 40.5469 89.6562 39.3281C90.875 38.1094 92.2969 37.1484 93.9219 36.4453C95.5625 35.7422 97.3125 35.3906 99.1719 35.3906C101.031 35.3906 102.773 35.7422 104.398 36.4453C106.039 37.1484 107.469 38.1094 108.688 39.3281C109.906 40.5469 110.867 41.9766 111.57 43.6172C112.273 45.2422 112.625 46.9844 112.625 48.8438V69ZM116.492 45.4688C116.492 44.0781 116.758 42.7734 117.289 41.5547C117.82 40.3359 118.539 39.2734 119.445 38.3672C120.367 37.4453 121.438 36.7188 122.656 36.1875C123.875 35.6562 125.18 35.3906 126.57 35.3906H141.992V42.1172H126.57C126.102 42.1172 125.664 42.2031 125.258 42.375C124.852 42.5469 124.492 42.7891 124.18 43.1016C123.883 43.3984 123.648 43.75 123.477 44.1562C123.305 44.5625 123.219 45 123.219 45.4688C123.219 45.9375 123.305 46.3828 123.477 46.8047C123.648 47.2109 123.883 47.5703 124.18 47.8828C124.492 48.1797 124.852 48.4141 125.258 48.5859C125.664 48.7578 126.102 48.8438 126.57 48.8438H133.297C134.688 48.8438 135.992 49.1094 137.211 49.6406C138.445 50.1562 139.516 50.875 140.422 51.7969C141.344 52.7031 142.062 53.7734 142.578 55.0078C143.109 56.2266 143.375 57.5312 143.375 58.9219C143.375 60.3125 143.109 61.6172 142.578 62.8359C142.062 64.0547 141.344 65.125 140.422 66.0469C139.516 66.9531 138.445 67.6719 137.211 68.2031C135.992 68.7344 134.688 69 133.297 69H118.367V62.2734H133.297C133.766 62.2734 134.203 62.1875 134.609 62.0156C135.016 61.8438 135.367 61.6094 135.664 61.3125C135.977 61 136.219 60.6406 136.391 60.2344C136.562 59.8281 136.648 59.3906 136.648 58.9219C136.648 58.4531 136.562 58.0156 136.391 57.6094C136.219 57.2031 135.977 56.8516 135.664 56.5547C135.367 56.2422 135.016 56 134.609 55.8281C134.203 55.6562 133.766 55.5703 133.297 55.5703H126.57C125.18 55.5703 123.875 55.3047 122.656 54.7734C121.438 54.2422 120.367 53.5234 119.445 52.6172C118.539 51.6953 117.82 50.625 117.289 49.4062C116.758 48.1719 116.492 46.8594 116.492 45.4688ZM170.844 69H147.805V35.3906H170.844V42.1172H154.531V48.8438H165.57V55.5703H154.531V62.2734H170.844V69ZM182.281 42.1172V55.5703H189.008C189.93 55.5703 190.797 55.3984 191.609 55.0547C192.422 54.6953 193.133 54.2109 193.742 53.6016C194.352 52.9922 194.828 52.2812 195.172 51.4688C195.531 50.6406 195.711 49.7656 195.711 48.8438C195.711 47.9219 195.531 47.0547 195.172 46.2422C194.828 45.4141 194.352 44.6953 193.742 44.0859C193.133 43.4766 192.422 43 191.609 42.6562C190.797 42.2969 189.93 42.1172 189.008 42.1172H182.281ZM182.281 69H175.555V35.3906H189.008C190.242 35.3906 191.43 35.5547 192.57 35.8828C193.711 36.1953 194.773 36.6484 195.758 37.2422C196.758 37.8203 197.664 38.5234 198.477 39.3516C199.305 40.1641 200.008 41.0703 200.586 42.0703C201.18 43.0703 201.633 44.1406 201.945 45.2812C202.273 46.4219 202.438 47.6094 202.438 48.8438C202.438 50.6875 202.086 52.4297 201.383 54.0703C200.68 55.6953 199.719 57.1172 198.5 58.3359C197.281 59.5547 195.852 60.5156 194.211 61.2188C192.586 61.9219 190.852 62.2734 189.008 62.2734H182.281V69ZM217.648 55.5703C217.648 57.4297 217.297 59.1797 216.594 60.8203C215.891 62.4453 214.93 63.8672 213.711 65.0859C212.508 66.2891 211.086 67.2422 209.445 67.9453C207.82 68.6484 206.078 69 204.219 69C203.094 69 201.969 68.8594 200.844 68.5781V61.3594C201.344 61.6562 201.883 61.8828 202.461 62.0391C203.039 62.1953 203.625 62.2734 204.219 62.2734C205.141 62.2734 206.008 62.1016 206.82 61.7578C207.648 61.3984 208.367 60.9141 208.977 60.3047C209.586 59.6953 210.062 58.9844 210.406 58.1719C210.766 57.3594 210.945 56.4922 210.945 55.5703V35.3906H217.648V55.5703ZM230.234 69H223.508V35.3906H230.234V69ZM296.328 52.3359C296.328 53.9297 296.117 55.4688 295.695 56.9531C295.289 58.4219 294.711 59.8047 293.961 61.1016C293.211 62.3828 292.305 63.5547 291.242 64.6172C290.18 65.6797 289.008 66.5938 287.727 67.3594C286.445 68.1094 285.062 68.6875 283.578 69.0938C282.094 69.5156 280.555 69.7266 278.961 69.7266C277.367 69.7266 275.828 69.5156 274.344 69.0938C272.875 68.6875 271.492 68.1094 270.195 67.3594C268.914 66.5938 267.742 65.6797 266.68 64.6172C265.617 63.5547 264.703 62.3828 263.938 61.1016C263.188 59.8047 262.602 58.4219 262.18 56.9531C261.773 55.4688 261.57 53.9297 261.57 52.3359C261.57 50.7422 261.773 49.2031 262.18 47.7188C262.602 46.2344 263.188 44.8516 263.938 43.5703C264.703 42.2891 265.617 41.1172 266.68 40.0547C267.742 38.9922 268.914 38.0859 270.195 37.3359C271.492 36.5859 272.875 36.0078 274.344 35.6016C275.828 35.1797 277.367 34.9688 278.961 34.9688C280.555 34.9688 282.094 35.1797 283.578 35.6016C285.062 36.0078 286.445 36.5859 287.727 37.3359C289.008 38.0859 290.18 38.9922 291.242 40.0547C292.305 41.1172 293.211 42.2891 293.961 43.5703C294.711 44.8516 295.289 46.2344 295.695 47.7188C296.117 49.2031 296.328 50.7422 296.328 52.3359ZM289.648 52.3359C289.648 50.8672 289.367 49.4844 288.805 48.1875C288.242 46.875 287.477 45.7422 286.508 44.7891C285.555 43.8203 284.422 43.0547 283.109 42.4922C281.812 41.9297 280.43 41.6484 278.961 41.6484C277.477 41.6484 276.086 41.9297 274.789 42.4922C273.492 43.0547 272.359 43.8203 271.391 44.7891C270.422 45.7422 269.656 46.875 269.094 48.1875C268.531 49.4844 268.25 50.8672 268.25 52.3359C268.25 53.8047 268.531 55.1875 269.094 56.4844C269.656 57.7656 270.422 58.8906 271.391 59.8594C272.359 60.8281 273.492 61.5938 274.789 62.1562C276.086 62.7188 277.477 63 278.961 63C280.43 63 281.812 62.7188 283.109 62.1562C284.422 61.5938 285.555 60.8281 286.508 59.8594C287.477 58.8906 288.242 57.7656 288.805 56.4844C289.367 55.1875 289.648 53.8047 289.648 52.3359ZM307.484 42.1172V55.5703H314.211C315.133 55.5703 316 55.3984 316.812 55.0547C317.625 54.6953 318.336 54.2109 318.945 53.6016C319.555 52.9922 320.031 52.2812 320.375 51.4688C320.734 50.6406 320.914 49.7656 320.914 48.8438C320.914 47.9219 320.734 47.0547 320.375 46.2422C320.031 45.4141 319.555 44.6953 318.945 44.0859C318.336 43.4766 317.625 43 316.812 42.6562C316 42.2969 315.133 42.1172 314.211 42.1172H307.484ZM307.484 69H300.758V35.3906H314.211C315.445 35.3906 316.633 35.5547 317.773 35.8828C318.914 36.1953 319.977 36.6484 320.961 37.2422C321.961 37.8203 322.867 38.5234 323.68 39.3516C324.508 40.1641 325.211 41.0703 325.789 42.0703C326.383 43.0703 326.836 44.1406 327.148 45.2812C327.477 46.4219 327.641 47.6094 327.641 48.8438C327.641 50 327.492 51.125 327.195 52.2188C326.914 53.3125 326.5 54.3516 325.953 55.3359C325.422 56.3203 324.766 57.2266 323.984 58.0547C323.203 58.8828 322.328 59.6016 321.359 60.2109L325.086 69H317.938L315.008 62.2266L307.484 62.2734V69ZM358.812 65.6016C357.25 66.9297 355.508 67.9531 353.586 68.6719C351.664 69.375 349.664 69.7266 347.586 69.7266C345.992 69.7266 344.453 69.5156 342.969 69.0938C341.5 68.6875 340.125 68.1094 338.844 67.3594C337.562 66.5938 336.391 65.6875 335.328 64.6406C334.266 63.5781 333.359 62.4062 332.609 61.125C331.859 59.8281 331.273 58.4375 330.852 56.9531C330.445 55.4688 330.242 53.9297 330.242 52.3359C330.242 50.7422 330.445 49.2109 330.852 47.7422C331.273 46.2734 331.859 44.8984 332.609 43.6172C333.359 42.3203 334.266 41.1484 335.328 40.1016C336.391 39.0391 337.562 38.1328 338.844 37.3828C340.125 36.6328 341.5 36.0547 342.969 35.6484C344.453 35.2266 345.992 35.0156 347.586 35.0156C349.664 35.0156 351.664 35.375 353.586 36.0938C355.508 36.7969 357.25 37.8125 358.812 39.1406L355.297 45C354.281 43.9688 353.109 43.1641 351.781 42.5859C350.453 41.9922 349.055 41.6953 347.586 41.6953C346.117 41.6953 344.734 41.9766 343.438 42.5391C342.156 43.1016 341.031 43.8672 340.062 44.8359C339.094 45.7891 338.328 46.9141 337.766 48.2109C337.203 49.4922 336.922 50.8672 336.922 52.3359C336.922 53.8203 337.203 55.2109 337.766 56.5078C338.328 57.8047 339.094 58.9375 340.062 59.9062C341.031 60.875 342.156 61.6406 343.438 62.2031C344.734 62.7656 346.117 63.0469 347.586 63.0469C348.43 63.0469 349.25 62.9453 350.047 62.7422C350.844 62.5391 351.602 62.2578 352.32 61.8984V52.3359H358.812V65.6016ZM383.773 55.5703V48.8438C383.773 47.9219 383.594 47.0547 383.234 46.2422C382.891 45.4141 382.414 44.6953 381.805 44.0859C381.195 43.4766 380.477 43 379.648 42.6562C378.836 42.2969 377.969 42.1172 377.047 42.1172C376.125 42.1172 375.25 42.2969 374.422 42.6562C373.609 43 372.898 43.4766 372.289 44.0859C371.68 44.6953 371.195 45.4141 370.836 46.2422C370.492 47.0547 370.32 47.9219 370.32 48.8438V55.5703H383.773ZM390.5 69H383.773V62.2734H370.32V69H363.617V48.8438C363.617 46.9844 363.969 45.2422 364.672 43.6172C365.375 41.9766 366.328 40.5469 367.531 39.3281C368.75 38.1094 370.172 37.1484 371.797 36.4453C373.438 35.7422 375.188 35.3906 377.047 35.3906C378.906 35.3906 380.648 35.7422 382.273 36.4453C383.914 37.1484 385.344 38.1094 386.562 39.3281C387.781 40.5469 388.742 41.9766 389.445 43.6172C390.148 45.2422 390.5 46.9844 390.5 48.8438V69ZM423.219 69H416.023L403.062 46.875V69H396.336V35.3906H403.531L416.492 57.5391V35.3906H423.219V69ZM436.203 69H429.477V35.3906H436.203V69ZM469.297 65.5547C467.734 66.8984 465.984 67.9297 464.047 68.6484C462.109 69.3672 460.102 69.7266 458.023 69.7266C456.43 69.7266 454.891 69.5156 453.406 69.0938C451.938 68.6875 450.555 68.1094 449.258 67.3594C447.977 66.5938 446.805 65.6797 445.742 64.6172C444.68 63.5547 443.766 62.3828 443 61.1016C442.25 59.8047 441.664 58.4219 441.242 56.9531C440.836 55.4688 440.633 53.9297 440.633 52.3359C440.633 50.7422 440.836 49.2031 441.242 47.7188C441.664 46.2344 442.25 44.8516 443 43.5703C443.766 42.2734 444.68 41.0938 445.742 40.0312C446.805 38.9688 447.977 38.0625 449.258 37.3125C450.555 36.5469 451.938 35.9609 453.406 35.5547C454.891 35.1328 456.43 34.9219 458.023 34.9219C460.102 34.9219 462.109 35.2812 464.047 36C465.984 36.7031 467.734 37.7344 469.297 39.0938L465.734 44.9531C464.75 43.8906 463.586 43.0781 462.242 42.5156C460.898 41.9375 459.492 41.6484 458.023 41.6484C456.539 41.6484 455.148 41.9297 453.852 42.4922C452.555 43.0547 451.422 43.8203 450.453 44.7891C449.484 45.7422 448.719 46.875 448.156 48.1875C447.594 49.4844 447.312 50.8672 447.312 52.3359C447.312 53.8047 447.594 55.1875 448.156 56.4844C448.719 57.7656 449.484 58.8906 450.453 59.8594C451.422 60.8281 452.555 61.5938 453.852 62.1562C455.148 62.7188 456.539 63 458.023 63C459.492 63 460.898 62.7188 462.242 62.1562C463.586 61.5781 464.75 60.7578 465.734 59.6953L469.297 65.5547Z" fill="#164D02"/>
<defs>
<filter id="filter0_d" x="0" y="7" width="59" height="65" filterUnits="userSpaceOnUse" color-interpolation-filters="sRGB">
<feFlood flood-opacity="0" result="BackgroundImageFix"/>
<feColorMatrix in="SourceAlpha" type="matrix" values="0 0 0 0 0 0 0 0 0 0 0 0 0 0 0 0 0 0 127 0"/>
<feOffset dy="4"/>
<feGaussianBlur stdDeviation="2"/>
<feColorMatrix type="matrix" values="0 0 0 0 0 0 0 0 0 0 0 0 0 0 0 0 0 0 0.25 0"/>
<feBlend mode="normal" in2="BackgroundImageFix" result="effect1_dropShadow"/>
<feBlend mode="normal" in="SourceGraphic" in2="effect1_dropShadow" result="shape"/>
</filter>
</defs>
</svg>
