<svg width="195" height="26" viewBox="0 0 391 52" fill="none" xmlns="http://www.w3.org/2000/svg">
<rect width="391" height="52" fill="#E5E5E5" fill-opacity="0.06"/>
<path d="M14 20H14.9714H15.5429H16V20H15.6571H15.9429H14.5714H14.1714H14Z" stroke="#31441A"/>
<path d="M39.72 27.8125L39.4 27.9375L38.44 27.4375L37.8 27.1875V27L37.56 26.75V26.5625L37.24 26.375L37 26.25L37.08 26L37.56 26.125L37.96 26.375L38.28 26.6875L38.44 26.875L38.68 26.75L39 26.6875L39.4 26.5625L39.88 26.6875H40.28L40.44 26.875L40.04 27H39.56L39.16 27.0625L39 27.375L39.16 27.5625L39.48 27.375L39.88 27.3125L40.52 27.5625L40.76 27.8125L41 28H40.76L40.44 27.8125H39.72Z" fill="#35481D" stroke="#35481D"/>
<path d="M28.4941 35.3846C28.56 35.4462 28.7412 35.6667 28.8235 35.7692H30.2235H30.8824L31.7882 35.9231L32.6118 36.3077L33.1882 36.6154L33.7647 37.0769L34.3412 37.8462L34.8353 38.3846L35.2471 38.9231L35.4118 39.4615L35.5765 40H35.8235H36.8941L37.4706 39.6154L38.4588 39.1538L39.1176 38.7692L39.6941 38.2308L40.2706 37.6154L40.8471 36.9231L41.0941 36.6154C41.149 36.4615 41.2753 36.1385 41.3412 36.0769C41.4071 36.0154 41.5333 35.8462 41.5882 35.7692L42 34.8462V33.8462V32.7692L41.9176 31.6923L41.0941 30.2308L40.5176 29.3846L39.7765 28.6154L39.0353 28L37.7176 27.3846L37.0588 27.1538L36.1529 27H35.1647H34.0941H33.4353C33.2706 27 32.9412 27.0769 32.6941 27.1538C32.4471 27.2308 32.2824 27.3077 32.1176 27.3846C31.9859 27.4462 31.6784 27.5128 31.5412 27.5385L31.0471 28L30.4706 28.6154L29.7294 29.3846L29.0706 30.0769L28.6588 30.8462L28.3294 31.6923L28 32.6923V33.6154L28.1647 34.6154C28.2471 34.8462 28.4282 35.3231 28.4941 35.3846Z" fill="#C92121" stroke="#C92121"/>
<path d="M15.7639 23.2941L15 24.1765L18.5139 30L18.8194 29.7353L19.2014 29.1176L19.5069 28.5L19.8125 27.8824L20.1944 27.5294L20.5764 27.1765L20.3472 27C20.1944 26.9412 19.8736 26.8235 19.8125 26.8235H19.2014L18.8194 27.1765L18.8958 26.8235L19.2014 26.3824L19.5069 26.1176L19.8889 25.9412C20.0417 25.9706 20.3625 26.0118 20.4236 25.9412C20.4847 25.8706 20.7546 26.0294 20.8819 26.1176L20.7292 25.6765L20.4236 25.2353L19.8889 25.0588H19.5069L19.6597 24.8824L20.1944 24.6176H20.7292L21.2639 25.0588L21.4931 25.2353H21.6458V24.8824L21.7986 24.6176L21.9514 24.4412L22.1042 24.1765L22.4097 24L22.8681 23.8235L23.1736 24L22.8681 24.2647L22.6389 24.6176L22.4097 25.0588V25.6765L23.0208 25.5L23.4028 25.2353L24.0139 25.0588L24.5486 24.8824H25.1597H26L25.8472 24.1765L25.3889 23.1176L25.0833 22.5L24.7014 22.3235L24.0139 21.8824L23.4028 21.5294L22.6389 21.1765L21.6458 21H20.8819L19.6597 21.1765L18.5139 21.3529L17.5208 21.8824L16.8333 22.3235L16.2222 22.7647L15.7639 23.2941Z" fill="#C6C040" stroke="#C6C040"/>
<path d="M10.3123 20.798V21.5758L11.3553 21.2222L12.6963 20.9394L13.3668 20.5859L14.0372 19.8788L14.5587 19.101L15.2292 18.7475H16.4957H17.3897L16.7937 17.9697L16.4957 16.9091V15.9899L17.1662 14.9293L17.8367 14.6465L17.3897 14.0101L17.1662 13.0909L17.3897 12.3131L18.2092 11.4646L19.1777 10.899L20.5186 10.6869H21.4126L21.8596 9.62626L22.5301 8.56566L23.5731 7.64646H24.467L25.957 7.36364H27L26.3295 6.37374L25.957 6.0202L25.212 5.52525L24.467 5.10101L23.1261 4.67677L21.4126 4.60606L21.1891 3.82828L21.0401 3.47475L20.5186 2.76768L19.7736 2.06061L19.1777 1.56566L18.2092 1.21212L17.3897 1H16.2722L15.2292 1.21212L14.0372 1.56566L12.2493 3.61616L11.3553 3.19192L10.1633 2.9798L8.82235 3.19192L8.07736 3.61616L6.95989 4.32323L6.1404 5.24242L5.54441 6.23232L5.02292 7.36364L4.94842 8.07071V8.56566L5.02292 9.62626L4.12894 9.83838L1.96848 11.4646L1.29799 12.4545L1 13.303V14.3636L2.48997 15.9899L2.04298 17.5455V18.7475L2.34097 19.7374L4.12894 20.9394L6.2894 21.8586L7.48138 22H8.44986L8.15186 21.2929V20.798L8.44986 20.2323L8.67335 20.0202V20.9394L8.97135 21.5758L9.41834 21.7172V21.2222C9.44317 21.0337 9.50774 20.6424 9.56734 20.5859C9.62693 20.5293 9.8405 20.1852 9.93983 20.0202L10.6103 19.5253H11.1318L10.7593 19.8788L10.3868 20.3737L10.3123 20.798Z" fill="#357915" stroke="#357915" stroke-width="2"/>
<path d="M35.4064 45.3525C35.429 45.4724 35.4606 45.7698 35.4064 46L46.5139 33.9856L51.1195 28.2302L51.5936 27.3669L51.7968 26.5755L52 26L51.5936 26.5755L50.8486 27.3669L49.8327 28.2302L48.749 28.9496L47.8008 29.5971L46.8526 30.0288L45.9044 30.6043L44.3466 30.964L43.1952 31.1799L43.0598 32.1871L42.7888 33.1942L42.5179 33.9856L41.5697 35.2806L41.2988 35.8561L40.8924 36.7914L40.4183 37.6547L39.8765 38.2302L39.3347 38.8058L38.5219 39.3094L37.9124 39.741L37.3705 40.0288H36.3546V40.3885V40.964V41.3957L36.1514 42.3309L35.8127 43.1942L35 44.4892L35.1355 44.8489L35.4064 45.3525Z" fill="#CF8C09" stroke="#CF8C09"/>
<path d="M32.5942 7.81977H31L31.8696 6.83721L32.5942 6.15698L33.3188 5.47674L34.1159 4.79651L34.913 4.26744L35.9275 3.66279L37.0145 3.2093L37.8841 2.75581L38.6087 2.52907L39.0435 2.37791L39.6957 2.15116L40.4203 2.07558L41.6522 2L42.6667 2.07558L44.1159 2.22674L45.6377 2.60465L47.2319 3.05814L48.2464 3.51163L49.2609 4.11628L50.9275 5.32558L51.7246 6.15698L52.3043 6.83721L53.971 8.87791L54.9855 10.4651L55.4203 11.5988L56 14.2442V18.7791L55.6377 20.7442L53.971 24.75L53.5362 25.2035L52.8841 25.8837L52.3768 26.564L51.6522 27.2442L50.8551 28C50.7585 27.9748 50.5362 27.9093 50.4203 27.8488C50.2754 27.7733 49.8406 27.6221 49.6957 27.6221C49.5797 27.6221 49.2609 27.4709 49.1159 27.3953C48.8261 27.2946 48.2319 27.093 48.1739 27.093C48.1014 27.093 47.4493 26.6395 47.3768 26.6395C47.3188 26.6395 46.3382 26.0349 45.8551 25.7326L45.1304 25.2035L44.2609 24.4477L43.4638 23.6163L42.8116 22.936L42.1594 22.2558C41.942 22.0291 41.4928 21.5756 41.4348 21.5756C41.3768 21.5756 41.0242 21.2229 40.8551 21.0465L40.1304 20.1395L39.5507 19.3837L38.8261 18.3256L38.5362 17.7451L38.3188 17.4186L38.4638 16.8895L38.5362 16.0581V15.3779L38.1014 14.3953L37.3768 13.564L36.5072 12.8837L35.9275 12.5058H35.4928L35.5652 11.8256V11.2965V10.6919L35.2754 10.0116L34.913 9.48256L34.4783 8.95349L33.971 8.5L33.6087 8.19767L33.1014 7.89535L32.5942 7.81977Z" fill="#46A444" stroke="#46A444"/>
<path d="M8.10169 23.3898H8.86441L9.54237 22.7797L10.2203 22.4407L11.0678 22.0339V21.7627V21.2881L11.1525 20.8814L11.5763 20.2712L12 20H11.322L10.7288 20.4068L10.2203 21.0169L10.0508 21.6271V22.1695L9.62712 22.0339L9.37288 21.6271L9.11864 21.3559V20.8814V20.5424L8.86441 20.678L8.61017 21.3559V21.7627L8.86441 22.1695L9.11864 22.4407L8.86441 22.5085L8.10169 22.7119L7.33898 23.0508L7 24L8.10169 23.3898Z" fill="#245F15" stroke="#245F15"/>
<path d="M35.8158 44.4615L35.4211 44.9231V45L35.3421 44.8462L35.1053 44.6923L34.9474 44.3846L34.4737 43.7692L34.5526 43.6923H34.9474L35.1842 43.8462H35.4211L35.5 43.6923L35.4211 43.6154L35.3421 43.4615L35.1842 43.3077L34.9474 43.1538L34.8684 43.0769H34.5526L34.1579 43H34.3158L34.4737 42.9231L34.6316 43H34.7895L34.9474 42.9231V42.7692V42.5385L34.8684 42.4615L34.7105 42.3846L34.6316 42.3077L34.3158 42.3846H34.1579H33.9211L33.8421 42.6154L33.7632 42.5385L33.6842 42.4615L33.6053 42.3077L33.5263 42.2308L33.3684 42.1538L33.2105 42.0769L33.0526 42H32.8158H32.5789L32.5 42.2308L32.7368 42.5385L32.8947 42.7692L32.3421 42.5385L31.7105 42.3846H30.9211L30.2895 42.6154L29.4211 43.0769L28.7895 43.5385L28.3158 43.9231L27.6842 44.5385L25 39.7692L25.0789 39.6923L26.1053 40L26.3421 39.5385L26.5 39.1538L26.7368 38.6154L27.2895 37.9231L27.8421 37.3077L28.3947 36.8462L29.1053 36.3846L29.7368 36.1538L30.5263 36H31.0789H32.3421L33.3684 36.2308L33.8421 36.4615L34.6316 36.8462L35.2632 37.3846L35.6579 37.9231L36.0526 38.3846L36.4474 38.8462L36.6842 39.3077L36.9211 40.3077L37 40.8462L36.8421 41.5385V42.3077L36.4474 43.2308L36.2105 43.8462L35.8158 44.4615Z" fill="#A02525" stroke="#A02525" stroke-width="2"/>
<path d="M33.969 43.9067L33.8851 43.9534L33.8011 43.9067L33.6331 43.8601C33.5491 43.829 33.3643 43.7668 33.2971 43.7668C33.23 43.7668 33.1012 43.7047 33.0452 43.6736L32.5413 43.5337V43.487V43.4404C32.5413 43.4404 32.4573 43.3472 32.4573 43.3005C32.4573 43.2539 32.3733 43.3005 32.3733 43.2539C32.3733 43.2073 32.2893 43.2073 32.2053 43.2073C32.1213 43.2073 32.1213 43.1606 32.0373 43.114C31.9533 43.0674 32.0373 43.0674 32.0373 43.0207C32.0373 42.9741 32.1213 43.0207 32.2053 43.0207H32.4573C32.5245 43.0207 32.5972 43.0518 32.6252 43.0674L32.8772 43.1606L33.0452 43.2539L33.1292 43.3472H33.2971C33.3251 43.3316 33.3811 43.2912 33.3811 43.2539C33.3811 43.2073 33.7171 43.2073 33.8011 43.2073C33.8851 43.2073 33.8851 43.1606 33.969 43.1606H34.137L34.305 43.2539L34.389 43.3472V43.4404L34.305 43.487L33.969 43.4404H33.8011L33.7171 43.487L33.5491 43.5337L33.6331 43.6269H33.7171L33.969 43.5803C34.053 43.5959 34.2378 43.6269 34.305 43.6269C34.3722 43.6269 34.445 43.658 34.473 43.6736L34.6409 43.7202C34.6969 43.7513 34.8089 43.8228 34.8089 43.8601C34.8089 43.9067 34.8929 43.9067 34.9769 43.9534C35.0441 43.9907 34.9489 44 34.8929 44H34.7249L34.473 43.9067H34.221H33.969Z" fill="#3F591E" stroke="#3F591E"/>
<path d="M30 50L26.7947 46.7863L9.5298 27.8865L8.50993 26.2032L8 24.9024L8.21854 23.6781L8.80132 22.9129L9.16556 22.5303L9.96689 21.9182L10.6954 21.4591L11.0596 21.3061L12.4437 21H13.0265L14.5563 22.3008L18.6358 28.1161L23.5894 37.2216L26.7947 43.343L30 50Z" fill="#FF9A03" stroke="#FF9A03"/>
<path d="M35.8182 46.0175L36 46.8596V47.5614L35.8182 48.5439L35.5455 49.0351L34.8182 49.5263L34.0909 50.0877L32.6364 50.7895L32 51H30.5455L29.0909 50.8596L28.1818 50.5789L27.2727 49.8772L26.5455 49.1754L26.1818 48.5439L26 47.8421L30.1818 50.7895L30.3636 50.7193L26.8182 45.1053V44.8947L27 44.6842C27.1515 44.5906 27.4727 44.3895 27.5455 44.3333L28.1818 43.8421C28.4545 43.7018 29.1091 43.393 29.5455 43.2807C29.9818 43.1684 30.3939 43.0468 30.5455 43C30.9091 43.0468 31.6545 43.1404 31.7273 43.1404C31.8182 43.1404 32.5455 43.3509 32.6364 43.4211C32.7273 43.4912 33.3636 43.7719 33.5455 43.8421C33.7273 43.9123 34.0909 44.1228 34.2727 44.193C34.4182 44.2491 34.6364 44.4971 34.7273 44.614L35.4545 45.386L35.8182 46.0175Z" fill="#D23131" stroke="#D23131" stroke-width="2"/>
<path d="M50.2821 28.3702L51 27.8287L49.6359 27.2873L48.4872 26.9006L47.3385 26.2044L46.3333 25.663L45.4718 24.9669L44.5385 24.116L43.8205 23.2652C43.4855 22.9816 42.8154 22.3989 42.8154 22.337C42.8154 22.2751 42.3368 21.7956 42.0974 21.5635L41.3077 20.7901L40.5179 19.8619L39.8 18.9337L39.0103 17.7735L38.5795 17L38.4359 17.3094L37.5744 17.7735L37 18.3149L37.2154 18.779L37.359 19.2431V20.0939L37 20.7901L37.2154 21.0994L37.5744 21.3315L37.8615 21.7182V22.337L38.0769 21.9503L38.0051 21.0994L37.7179 20.6354V20.326H38.0051L38.4359 20.7901L38.7231 21.3315L38.8667 22.0276L39.3692 21.7182L39.8 21.5635L40.3026 21.7182L40.5179 22.1823H39.9436L39.5128 22.337L39.1538 22.8011L40.0872 23.2652L41.8821 24.6575L42.6 25.663L43.3179 26.9006L43.6051 27.9834L43.9641 29.2983V30.1492V31L46.8359 30.3812L47.6974 29.8398L48.9897 29.2983L50.2821 28.3702Z" fill="#265C18" stroke="#265C18"/>
<path d="M27.641 36.3333V36.4815L27.2821 36.6667L27.0256 36.8148L26.8205 36.963L26.6154 36.8889L26.4615 36.8519C26.3932 36.8642 26.2462 36.8889 26.2051 36.8889C26.1641 36.8889 26.0855 36.963 26.0513 37L26 36.8889L26.1026 36.7407L26.2051 36.6667L26.4615 36.6296L26.7179 36.5926H26.8718L26.7692 36.4074L26.5128 36.3704L26.359 36.3333L26.4615 36.2593L26.6154 36.1852H26.8718L27.0769 36.2593L27.2308 36.2963L27.2821 36.3704L27.3846 36.2593V36.1111L27.4872 36.037L27.5897 36H27.7436H28L27.8974 36.1111L27.7436 36.1852L27.641 36.3333Z" fill="#293F0D" stroke="#293F0D"/>
<path d="M17.9286 21.3421V21.8158L17.6607 21.9737C17.5714 22.0263 17.3571 22.1474 17.2143 22.2105C17.0357 22.2895 16.9464 22.3684 16.8571 22.3684C16.7679 22.3684 16.5893 22.6053 16.5 22.6053C16.4286 22.6053 16.1726 22.8684 16.0536 23C15.9345 22.9737 15.6786 22.9211 15.6071 22.9211H15.1607H14.7143L14.2679 22.8421L14 22.7632C14 22.7368 14.0179 22.6684 14.0893 22.6053C14.1607 22.5421 14.2381 22.4211 14.2679 22.3684L14.4464 22.1316L14.8929 22.0526L15.6071 22.1316H15.7857L16.0536 22.0526L15.9643 21.8947C15.9345 21.8421 15.8571 21.7211 15.7857 21.6579C15.7143 21.5947 15.6964 21.5263 15.6964 21.5L15.3393 21.3421L14.8929 21.2632H14.625V20.9474L14.7143 20.7895H15.5179C15.5893 20.7895 15.9048 20.8421 16.0536 20.8684C16.1429 20.9474 16.3393 21.1053 16.4107 21.1053C16.4821 21.1053 16.619 21.2105 16.6786 21.2632L16.8571 21.5L16.9464 21.3421C16.9762 21.2368 17.0357 21.0105 17.0357 20.9474C17.0357 20.8842 17.0952 20.7632 17.125 20.7105L17.3929 20.4737C17.4821 20.4211 17.6607 20.3 17.6607 20.2368C17.6607 20.1737 17.8393 20.0526 17.9286 20H18.2857H18.8214L19 20.0789V20.2368L18.7321 20.3158L18.5536 20.4737L18.1964 20.7895L18.0179 20.9474L17.9286 21.3421Z" fill="#174706" stroke="#174706"/>
<path d="M15.7037 23.4286L16 23.1429V23.0476H15.037C14.9778 23.0476 14.8642 22.9841 14.8148 22.9524L14.6667 22.8571L14.5185 22.5714L14.8148 22.0952L15.3333 21.9048L15.1852 21.8095C15.0617 21.6825 14.8 21.4286 14.7407 21.4286C14.6815 21.4286 14.4691 21.1746 14.3704 21.0476L14 20.6667L13.4815 20.2857L13.3333 20L12.963 20.0952L12.4444 20.4762L12 20.6667H12.6667L12.8889 20.8571L13.3333 21.3333L13.7778 21.8095L14.2222 22.381L14.7407 23.1429L14.8889 23.4286L15.1852 24H15.3333L15.7037 23.4286Z" fill="#3A6A09" stroke="#3A6A09" stroke-width="2"/>
<path d="M20.3636 26.7632L20.9091 27L22.2727 26.1316L23 25.8158V25.5789V25.3421L23.1818 24.9474L23.3636 24.4737L23.7273 24.1579L24 24H23.4545C23.3636 24 22.8182 24.3158 22.7273 24.3947C22.6545 24.4579 22.3939 24.7368 22.2727 24.8684L22.0909 25.3421H21.8182L21.2727 24.8684L20.5455 24.7105L20 24.9474L20.5455 25.1053L20.9091 25.3421L21.3636 25.9737V26.2895L21 25.9737C20.9091 25.9211 20.6545 25.8158 20.3636 25.8158C20 25.8158 19.8182 25.9737 19.6364 25.9737C19.4545 25.9737 19.2727 26.2895 19.1818 26.3684C19.1091 26.4316 19.0303 26.6579 19 26.7632L19.4545 26.6053H19.8182L20.3636 26.7632Z" fill="#2B4B1C" stroke="#2B4B1C"/>
<path d="M19.4483 29.8848L19 30.2513L24.6034 39.7068L24.7529 39.6335L25.6494 40L25.8736 39.6335L26.0977 39.1937L26.3218 38.6806L26.6207 38.2408L26.9195 37.8743L27.3678 37.5079L27.1437 37.3613L26.9195 37.288H26.7701L26.546 37.3613L26.3218 37.5812L26.1724 37.4346V37.2147L26.3218 36.9948L26.4713 36.7749L26.7701 36.7016L27.069 36.6283L27.3678 36.555L27.2184 36.3351L26.9195 36.2618L26.6207 36.1885L27.069 35.822L27.2184 35.7487L27.6667 35.822L27.9655 35.9686L28.1149 36.0419L28.1897 35.9686V35.6754L28.3391 35.5288L28.5632 35.4555H28.9368H29.2356L29.0862 35.7487L28.8621 35.9686L28.7874 36.4084L29.2356 36.1885H29.7586C29.6839 36.1152 29.5345 35.9393 29.5345 35.822C29.5345 35.6754 29.1609 35.2356 29.1609 35.0157V34.2827V33.623L29.2356 32.8168C29.3103 32.5236 29.4747 31.9225 29.5345 31.8639C29.5943 31.8052 29.7088 31.3997 29.7586 31.2042L30.2816 30.5445L30.8793 29.8848L31.4023 29.2984L32 28.6387L31.7759 28.2723L31.1034 27.7592L30.5805 27.3927L29.7586 26.8796L28.7874 26.3665L28.1149 26.1466L27.1437 26H26.2471H25.3506H24.6034L23.7816 26.3665L22.9598 26.733L21.092 27.9058L20.3448 28.4188L19.4483 29.8848Z" fill="#FF3737" stroke="#FF3737"/>
<path d="M26.6154 24.0851L26.8626 24.8652H27.9341L29.0879 25.078L29.9121 25.3617L31.0659 26V24.8652L31.2308 23.5177V21.9574L31.478 21.1064L32.0549 20.0426L32.7967 19.2624L33.7033 18.5532L35.6813 17.7021L36.8352 17.2766L37 17.0638V16.8511L36.5055 17.0638L33.3736 18.1986L32.0549 18.766L31.2308 19.4752L30.3242 20.2553L30.1593 21.1064L29.5824 20.8227V16L27.9341 17.9858L27.6044 19.4752V20.539L27.9341 21.7447L27.4396 21.6028L26.2857 21.1064L24.8846 20.2553L23.8956 19.617L22.7418 19.1206H22L23.7308 20.539L24.8846 21.7447L26.0385 23.1631L26.6154 24.0851Z" fill="#6AB60B" stroke="#6AB60B"/>
<path d="M37.3977 26.7006L38.3523 27.0359L37.9545 26.1976L37.5568 25.9461L37.7159 25.3593L38.3523 25.6946L38.8295 26.0299L39.0682 26.6168L39.5455 26.2814L40.1023 26.1976L40.5 26.3653L40.9773 26.2814L41.0568 26.7006L40.5795 26.8683H40.1818L39.7841 27.0359L39.7045 27.3713L39.7841 27.5389L40.1818 27.2874H40.5795L40.9773 27.3713L41.375 27.7904L41.6932 28.2096H41.375L41.0568 27.9581H40.5795L40.1818 28.2096L40.5795 28.5449L41.0568 29.2156L41.6932 30.4731L42.1705 31.3114L42.4091 32.2335L42.5682 33.4072L42.4091 35L43.2045 33.994L43.6023 33.0719L44 31.8144V30.4731V28.5449C44 28.2934 43.6023 27.2874 43.6023 27.0359C43.6023 26.8347 43.125 25.9461 42.8864 25.5269L41.9318 23.9341L40.8182 22.8443L39.7045 22.1737L38.3523 21.5868L37.1591 21.3353L36.125 21H34.6932C34.4386 21 33.8977 21.2236 33.6591 21.3353L32.3068 21.9222L31.0341 22.509L30.2386 23.515L30 25.9461L30.7159 26.2814L31.5909 27.0359L31.9091 27.6228L32.3068 27.2874L32.8636 27.0359L33.8182 26.7006H34.6932H36.2841H37.3977Z" fill="#BEB81C" stroke="#BEB81C"/>
<path d="M37.2727 21.0667L37.4364 21.4667L38.1455 21.6667L38.5273 21.8L38.9636 22L39.1273 21.6667L39.4545 21.4667L40 21.2667L39.4545 21.0667L39.1273 21.2667L38.8545 21.4667L38.6364 21.2667L38.5273 20.7333L38.2545 20.2667L37.9273 20L37.9818 20.2667L38.1455 20.7333L38.2545 21.0667L38.1455 21.4667L37.9818 21.5333L37.9273 21.2667L37.6545 20.7333L37.2727 20.4L37 20.7333L37.2727 21.0667Z" fill="#284412" stroke="#284412" stroke-width="3"/>
<path d="M23.7917 22.3239L24.8611 23L23.5625 21.0469L21.3472 18.9437L22.4931 18.7183L23.7917 19.6197L24.8611 20.446L25.9306 21.0469L26.6944 21.2723L26.3889 20.2207L27 17.5915L28.4514 15.4131L28.6806 15.8638V18.7183V20.2207L28.9097 20.6714L29.2917 19.9202L29.8264 19.3192L30.5903 18.493L31.6597 18.1925L32.8819 17.5915L34.3333 16.9906L35.4028 16.4648V16.9906L34.5625 17.3662L33.5694 17.9671C33.2384 18.1174 32.5458 18.4329 32.4236 18.493C32.3014 18.5531 31.8634 19.0689 31.6597 19.3192L31.0486 19.9202L30.3611 20.9718V21.8732H30.8194H32.1944H33.5694L34.9444 21.5728L35.6319 20.9718L36.1667 20.2207L36.3194 19.6197L36.1667 18.7183L36.0139 17.9671L37.0833 17.3662L37.8472 16.4648L38 15.7136L37.8472 14.5869L37.0833 13.4601L36.1667 12.4836L34.9444 12.1831V10.9812V10.1549L34.3333 9.25352L33.9514 8.57746L32.8819 7.90141L32.1944 7.52582L31.3542 7.30047H30.3611H29.5972L28.9097 7.90141L28.0694 7.52582L26.6944 7H26.0833H25.0903L24.1736 7.30047L22.875 7.52582L21.8819 8.57746L21.3472 9.70423L20.9653 10.6808H20.2778H19.3611L18.3681 10.9812L17.6042 11.5822L16.8403 12.1831L16.6875 13.0845V13.9108L17.375 14.5869L16.6875 14.9624L16.2292 15.8638L16 16.9906L16.2292 18.1925L17.375 19.3192L17.9861 19.9202L19.0556 20.6714L20.0486 20.9718H21.3472V21.5728H21.6528L22.875 21.8732L23.7917 22.3239Z" fill="#235212" stroke="#235212" stroke-width="3"/>
<path d="M14.8182 22.6875L15.3273 23L15.6182 22.875L15.3273 22.375L14.6 22.25V22H15.6182L16.4182 22.375L16.5636 21.8125L17.2182 21.375H18.1636V21.6875L17.8 21.8125L17.3636 22.125V22.6875L18.0182 22.375L19.0364 22.25L20.0545 22.125L21 22V21.6875L20.0545 21.5625H19.3273L18.3091 21.0625L17.5091 20.5625L16.7818 20L16.0545 20.1875L16.5636 20.6875L16.4182 20.9375H16.0545L15.1818 20.6875H13.8727L13 21.5625L13.2182 21.8125L13.8727 22.125L14.3091 22.375L14.8182 22.6875Z" fill="#628E1A" stroke="#628E1A"/>
<path d="M31 23.0357V24L31.6522 22.7143L34 21H31V23.0357Z" fill="#202E09" stroke="#202E09"/>
<path d="M35.8696 20.625L35 20.875H36.5652L37 21L36.7391 20.375L36.3043 20L35.8696 20.625Z" fill="#73C907" stroke="#73C907"/>
<path d="M88.082 29.8086V24.2031C88.082 23.4349 87.9323 22.7122 87.6328 22.0352C87.3464 21.3451 86.9492 20.7461 86.4414 20.2383C85.9336 19.7305 85.3346 19.3333 84.6445 19.0469C83.9674 18.7474 83.2448 18.5977 82.4766 18.5977C81.7083 18.5977 80.9792 18.7474 80.2891 19.0469C79.612 19.3333 79.0195 19.7305 78.5117 20.2383C78.0039 20.7461 77.6003 21.3451 77.3008 22.0352C77.0143 22.7122 76.8711 23.4349 76.8711 24.2031V29.8086H88.082ZM93.6875 41H88.082V35.3945H76.8711V41H71.2852V24.2031C71.2852 22.6536 71.5781 21.2018 72.1641 19.8477C72.75 18.4805 73.5443 17.2891 74.5469 16.2734C75.5625 15.2578 76.7474 14.457 78.1016 13.8711C79.4688 13.2852 80.9271 12.9922 82.4766 12.9922C84.026 12.9922 85.4779 13.2852 86.832 13.8711C88.1992 14.457 89.3906 15.2578 90.4062 16.2734C91.4219 17.2891 92.2227 18.4805 92.8086 19.8477C93.3945 21.2018 93.6875 22.6536 93.6875 24.2031V41ZM96.9102 21.3906C96.9102 20.2318 97.1315 19.1445 97.5742 18.1289C98.0169 17.1133 98.6159 16.2279 99.3711 15.4727C100.139 14.7044 101.031 14.099 102.047 13.6562C103.062 13.2135 104.15 12.9922 105.309 12.9922H118.16V18.5977H105.309C104.918 18.5977 104.553 18.6693 104.215 18.8125C103.876 18.9557 103.577 19.1576 103.316 19.418C103.069 19.6654 102.874 19.9583 102.73 20.2969C102.587 20.6354 102.516 21 102.516 21.3906C102.516 21.7812 102.587 22.1523 102.73 22.5039C102.874 22.8424 103.069 23.1419 103.316 23.4023C103.577 23.6497 103.876 23.8451 104.215 23.9883C104.553 24.1315 104.918 24.2031 105.309 24.2031H110.914C112.073 24.2031 113.16 24.4245 114.176 24.8672C115.204 25.2969 116.096 25.8958 116.852 26.6641C117.62 27.4193 118.219 28.3112 118.648 29.3398C119.091 30.3555 119.312 31.4427 119.312 32.6016C119.312 33.7604 119.091 34.8477 118.648 35.8633C118.219 36.8789 117.62 37.7708 116.852 38.5391C116.096 39.2943 115.204 39.8932 114.176 40.3359C113.16 40.7786 112.073 41 110.914 41H98.4727V35.3945H110.914C111.305 35.3945 111.669 35.3229 112.008 35.1797C112.346 35.0365 112.639 34.8411 112.887 34.5938C113.147 34.3333 113.349 34.0339 113.492 33.6953C113.635 33.3568 113.707 32.9922 113.707 32.6016C113.707 32.2109 113.635 31.8464 113.492 31.5078C113.349 31.1693 113.147 30.8763 112.887 30.6289C112.639 30.3685 112.346 30.1667 112.008 30.0234C111.669 29.8802 111.305 29.8086 110.914 29.8086H105.309C104.15 29.8086 103.062 29.5872 102.047 29.1445C101.031 28.7018 100.139 28.1029 99.3711 27.3477C98.6159 26.5794 98.0169 25.6875 97.5742 24.6719C97.1315 23.6432 96.9102 22.5495 96.9102 21.3906ZM142.203 41H123.004V12.9922H142.203V18.5977H128.609V24.2031H137.809V29.8086H128.609V35.3945H142.203V41ZM151.734 18.5977V29.8086H157.34C158.108 29.8086 158.831 29.6654 159.508 29.3789C160.185 29.0794 160.777 28.6758 161.285 28.168C161.793 27.6602 162.19 27.0677 162.477 26.3906C162.776 25.7005 162.926 24.9714 162.926 24.2031C162.926 23.4349 162.776 22.7122 162.477 22.0352C162.19 21.3451 161.793 20.7461 161.285 20.2383C160.777 19.7305 160.185 19.3333 159.508 19.0469C158.831 18.7474 158.108 18.5977 157.34 18.5977H151.734ZM151.734 41H146.129V12.9922H157.34C158.368 12.9922 159.358 13.1289 160.309 13.4023C161.259 13.6628 162.145 14.0404 162.965 14.5352C163.798 15.0169 164.553 15.6029 165.23 16.293C165.921 16.9701 166.507 17.7253 166.988 18.5586C167.483 19.3919 167.861 20.2839 168.121 21.2344C168.395 22.1849 168.531 23.1745 168.531 24.2031C168.531 25.7396 168.238 27.1914 167.652 28.5586C167.066 29.9128 166.266 31.0977 165.25 32.1133C164.234 33.1289 163.043 33.9297 161.676 34.5156C160.322 35.1016 158.876 35.3945 157.34 35.3945H151.734V41ZM181.207 29.8086C181.207 31.3581 180.914 32.8164 180.328 34.1836C179.742 35.5378 178.941 36.7227 177.926 37.7383C176.923 38.7409 175.738 39.5352 174.371 40.1211C173.017 40.707 171.565 41 170.016 41C169.078 41 168.141 40.8828 167.203 40.6484V34.6328C167.62 34.8802 168.069 35.069 168.551 35.1992C169.033 35.3294 169.521 35.3945 170.016 35.3945C170.784 35.3945 171.507 35.2513 172.184 34.9648C172.874 34.6654 173.473 34.2617 173.98 33.7539C174.488 33.2461 174.885 32.6536 175.172 31.9766C175.471 31.2995 175.621 30.5768 175.621 29.8086V12.9922H181.207V29.8086ZM191.695 41H186.09V12.9922H191.695V41ZM246.773 27.1133C246.773 28.4414 246.598 29.724 246.246 30.9609C245.908 32.1849 245.426 33.3372 244.801 34.418C244.176 35.4857 243.421 36.4622 242.535 37.3477C241.65 38.2331 240.673 38.9948 239.605 39.6328C238.538 40.2578 237.385 40.7396 236.148 41.0781C234.911 41.4297 233.629 41.6055 232.301 41.6055C230.973 41.6055 229.69 41.4297 228.453 41.0781C227.229 40.7396 226.077 40.2578 224.996 39.6328C223.928 38.9948 222.952 38.2331 222.066 37.3477C221.181 36.4622 220.419 35.4857 219.781 34.418C219.156 33.3372 218.668 32.1849 218.316 30.9609C217.978 29.724 217.809 28.4414 217.809 27.1133C217.809 25.7852 217.978 24.5026 218.316 23.2656C218.668 22.0286 219.156 20.8763 219.781 19.8086C220.419 18.7409 221.181 17.7643 222.066 16.8789C222.952 15.9935 223.928 15.2383 224.996 14.6133C226.077 13.9883 227.229 13.5065 228.453 13.168C229.69 12.8164 230.973 12.6406 232.301 12.6406C233.629 12.6406 234.911 12.8164 236.148 13.168C237.385 13.5065 238.538 13.9883 239.605 14.6133C240.673 15.2383 241.65 15.9935 242.535 16.8789C243.421 17.7643 244.176 18.7409 244.801 19.8086C245.426 20.8763 245.908 22.0286 246.246 23.2656C246.598 24.5026 246.773 25.7852 246.773 27.1133ZM241.207 27.1133C241.207 25.8893 240.973 24.737 240.504 23.6562C240.035 22.5625 239.397 21.6185 238.59 20.8242C237.796 20.0169 236.852 19.3789 235.758 18.9102C234.677 18.4414 233.525 18.207 232.301 18.207C231.064 18.207 229.905 18.4414 228.824 18.9102C227.743 19.3789 226.799 20.0169 225.992 20.8242C225.185 21.6185 224.547 22.5625 224.078 23.6562C223.609 24.737 223.375 25.8893 223.375 27.1133C223.375 28.3372 223.609 29.4896 224.078 30.5703C224.547 31.638 225.185 32.5755 225.992 33.3828C226.799 34.1901 227.743 34.8281 228.824 35.2969C229.905 35.7656 231.064 36 232.301 36C233.525 36 234.677 35.7656 235.758 35.2969C236.852 34.8281 237.796 34.1901 238.59 33.3828C239.397 32.5755 240.035 31.638 240.504 30.5703C240.973 29.4896 241.207 28.3372 241.207 27.1133ZM256.07 18.5977V29.8086H261.676C262.444 29.8086 263.167 29.6654 263.844 29.3789C264.521 29.0794 265.113 28.6758 265.621 28.168C266.129 27.6602 266.526 27.0677 266.812 26.3906C267.112 25.7005 267.262 24.9714 267.262 24.2031C267.262 23.4349 267.112 22.7122 266.812 22.0352C266.526 21.3451 266.129 20.7461 265.621 20.2383C265.113 19.7305 264.521 19.3333 263.844 19.0469C263.167 18.7474 262.444 18.5977 261.676 18.5977H256.07ZM256.07 41H250.465V12.9922H261.676C262.704 12.9922 263.694 13.1289 264.645 13.4023C265.595 13.6628 266.48 14.0404 267.301 14.5352C268.134 15.0169 268.889 15.6029 269.566 16.293C270.257 16.9701 270.842 17.7253 271.324 18.5586C271.819 19.3919 272.197 20.2839 272.457 21.2344C272.73 22.1849 272.867 23.1745 272.867 24.2031C272.867 25.1667 272.743 26.1042 272.496 27.0156C272.262 27.9271 271.917 28.793 271.461 29.6133C271.018 30.4336 270.471 31.1888 269.82 31.8789C269.169 32.569 268.44 33.168 267.633 33.6758L270.738 41H264.781L262.34 35.3555L256.07 35.3945V41ZM298.844 38.168C297.542 39.2747 296.09 40.1276 294.488 40.7266C292.887 41.3125 291.22 41.6055 289.488 41.6055C288.16 41.6055 286.878 41.4297 285.641 41.0781C284.417 40.7396 283.271 40.2578 282.203 39.6328C281.135 38.9948 280.159 38.2396 279.273 37.3672C278.388 36.4818 277.633 35.5052 277.008 34.4375C276.383 33.3568 275.895 32.1979 275.543 30.9609C275.204 29.724 275.035 28.4414 275.035 27.1133C275.035 25.7852 275.204 24.5091 275.543 23.2852C275.895 22.0612 276.383 20.9154 277.008 19.8477C277.633 18.7669 278.388 17.7904 279.273 16.918C280.159 16.0326 281.135 15.2773 282.203 14.6523C283.271 14.0273 284.417 13.5456 285.641 13.207C286.878 12.8555 288.16 12.6797 289.488 12.6797C291.22 12.6797 292.887 12.9792 294.488 13.5781C296.09 14.1641 297.542 15.0104 298.844 16.1172L295.914 21C295.068 20.1406 294.091 19.4701 292.984 18.9883C291.878 18.4935 290.712 18.2461 289.488 18.2461C288.264 18.2461 287.112 18.4805 286.031 18.9492C284.964 19.418 284.026 20.056 283.219 20.8633C282.411 21.6576 281.773 22.5951 281.305 23.6758C280.836 24.7435 280.602 25.8893 280.602 27.1133C280.602 28.3503 280.836 29.5091 281.305 30.5898C281.773 31.6706 282.411 32.6146 283.219 33.4219C284.026 34.2292 284.964 34.8672 286.031 35.3359C287.112 35.8047 288.264 36.0391 289.488 36.0391C290.191 36.0391 290.875 35.9544 291.539 35.7852C292.203 35.6159 292.835 35.3815 293.434 35.082V27.1133H298.844V38.168ZM319.645 29.8086V24.2031C319.645 23.4349 319.495 22.7122 319.195 22.0352C318.909 21.3451 318.512 20.7461 318.004 20.2383C317.496 19.7305 316.897 19.3333 316.207 19.0469C315.53 18.7474 314.807 18.5977 314.039 18.5977C313.271 18.5977 312.542 18.7474 311.852 19.0469C311.174 19.3333 310.582 19.7305 310.074 20.2383C309.566 20.7461 309.163 21.3451 308.863 22.0352C308.577 22.7122 308.434 23.4349 308.434 24.2031V29.8086H319.645ZM325.25 41H319.645V35.3945H308.434V41H302.848V24.2031C302.848 22.6536 303.141 21.2018 303.727 19.8477C304.312 18.4805 305.107 17.2891 306.109 16.2734C307.125 15.2578 308.31 14.457 309.664 13.8711C311.031 13.2852 312.49 12.9922 314.039 12.9922C315.589 12.9922 317.04 13.2852 318.395 13.8711C319.762 14.457 320.953 15.2578 321.969 16.2734C322.984 17.2891 323.785 18.4805 324.371 19.8477C324.957 21.2018 325.25 22.6536 325.25 24.2031V41ZM352.516 41H346.52L335.719 22.5625V41H330.113V12.9922H336.109L346.91 31.4492V12.9922H352.516V41ZM363.336 41H357.73V12.9922H363.336V41ZM390.914 38.1289C389.612 39.2487 388.154 40.1081 386.539 40.707C384.924 41.306 383.251 41.6055 381.52 41.6055C380.191 41.6055 378.909 41.4297 377.672 41.0781C376.448 40.7396 375.296 40.2578 374.215 39.6328C373.147 38.9948 372.171 38.2331 371.285 37.3477C370.4 36.4622 369.638 35.4857 369 34.418C368.375 33.3372 367.887 32.1849 367.535 30.9609C367.197 29.724 367.027 28.4414 367.027 27.1133C367.027 25.7852 367.197 24.5026 367.535 23.2656C367.887 22.0286 368.375 20.8763 369 19.8086C369.638 18.7279 370.4 17.7448 371.285 16.8594C372.171 15.974 373.147 15.2188 374.215 14.5938C375.296 13.9557 376.448 13.4674 377.672 13.1289C378.909 12.7773 380.191 12.6016 381.52 12.6016C383.251 12.6016 384.924 12.901 386.539 13.5C388.154 14.0859 389.612 14.9453 390.914 16.0781L387.945 20.9609C387.125 20.0755 386.155 19.3984 385.035 18.9297C383.915 18.4479 382.743 18.207 381.52 18.207C380.283 18.207 379.124 18.4414 378.043 18.9102C376.962 19.3789 376.018 20.0169 375.211 20.8242C374.404 21.6185 373.766 22.5625 373.297 23.6562C372.828 24.737 372.594 25.8893 372.594 27.1133C372.594 28.3372 372.828 29.4896 373.297 30.5703C373.766 31.638 374.404 32.5755 375.211 33.3828C376.018 34.1901 376.962 34.8281 378.043 35.2969C379.124 35.7656 380.283 36 381.52 36C382.743 36 383.915 35.7656 385.035 35.2969C386.155 34.8151 387.125 34.1315 387.945 33.2461L390.914 38.1289Z" fill="#164D02"/>
</svg>
